<?xml version="1.0" encoding="UTF-8" standalone="no"?><svg xmlns="http://www.w3.org/2000/svg" xmlns:xlink="http://www.w3.org/1999/xlink" fill="#000000" height="501.4" preserveAspectRatio="xMidYMid meet" version="1" viewBox="-0.6 -0.2 338.9 501.4" width="338.9" zoomAndPan="magnify"><defs><clipPath id="a"><path d="M 149 56 L 338.359375 56 L 338.359375 449 L 149 449 Z M 149 56"/></clipPath><clipPath id="b"><path d="M 148 56 L 338.359375 56 L 338.359375 450 L 148 450 Z M 148 56"/></clipPath></defs><g><g id="change1_1"><path d="M 0.300781 482.921875 C 1.128906 478.367188 14.800781 476.980469 31.601562 479.519531 L 65.125 294.949219 C 45.59375 283.308594 43.480469 201.300781 60.976562 104.964844 L 142.671875 119.800781 C 125.355469 215.148438 94.988281 290.609375 72.671875 296.058594 L 39.101562 480.882812 C 55.722656 484.410156 68.035156 490.519531 67.207031 495.074219 C 66.320312 499.960938 50.621094 501.207031 32.148438 497.851562 C 13.671875 494.492188 -0.585938 487.8125 0.300781 482.921875" fill="#c5856d"/></g><g id="change1_2"><path d="M 61.1875 105.269531 C 52.792969 151.578125 48.617188 196.46875 49.425781 231.710938 C 50.234375 266.742188 55.855469 289.121094 65.257812 294.726562 L 65.414062 294.816406 L 31.859375 479.566406 L 31.816406 479.820312 L 31.5625 479.78125 C 14.957031 477.269531 1.339844 478.667969 0.558594 482.96875 C 0.160156 485.171875 3.261719 488 9.074219 490.722656 C 15.070312 493.53125 23.28125 495.972656 32.195312 497.59375 C 41.105469 499.210938 49.652344 499.8125 56.25 499.292969 C 56.3125 499.285156 56.371094 499.28125 56.429688 499.277344 C 62.722656 498.753906 66.550781 497.207031 66.949219 495.027344 C 67.730469 490.726562 55.472656 484.628906 39.046875 481.140625 L 38.796875 481.089844 L 72.414062 296.011719 L 72.445312 295.84375 L 72.609375 295.804688 C 83.367188 293.175781 96.398438 273.90625 109.304688 241.542969 C 122.292969 208.960938 134.035156 165.808594 142.367188 120.011719 Z M 56.292969 499.816406 C 49.648438 500.34375 41.054688 499.734375 32.097656 498.109375 C 23.144531 496.480469 14.886719 494.027344 8.851562 491.199219 C 2.71875 488.324219 -0.410156 485.367188 0.0429688 482.875 C 0.882812 478.242188 14.339844 476.679688 31.386719 479.222656 L 64.832031 295.082031 C 55.363281 289.230469 49.707031 266.75 48.902344 231.722656 C 48.089844 196.382812 52.285156 151.347656 60.71875 104.917969 L 60.765625 104.65625 L 142.71875 119.542969 L 142.976562 119.589844 L 142.929688 119.847656 C 134.589844 165.773438 122.820312 209.0625 109.789062 241.738281 C 96.886719 274.097656 83.792969 293.449219 72.898438 296.269531 L 39.40625 480.679688 C 56.261719 484.292969 68.308594 490.484375 67.464844 495.121094 C 67.015625 497.589844 63.117188 499.25 56.476562 499.800781 C 56.417969 499.804688 56.355469 499.8125 56.292969 499.816406" fill="#c5856d"/></g><g clip-path="url(#a)" id="change1_23"><path d="M 204.039062 65.246094 C 203.679688 60.910156 206.90625 57.101562 211.242188 56.738281 C 214.617188 56.460938 217.664062 58.355469 219.023438 61.253906 L 228.335938 58.277344 C 257.832031 150.582031 266.464844 231.460938 249.324219 246.757812 L 306.5 425.695312 C 322.832031 421.003906 336.570312 420.613281 337.976562 425.023438 C 339.488281 429.753906 326.214844 438.226562 308.328125 443.941406 C 290.441406 449.65625 274.71875 450.453125 273.203125 445.71875 C 271.796875 441.3125 283.214844 433.664062 299.238281 428.015625 L 242.144531 249.335938 C 219.433594 248.230469 179.046875 176.816406 149.242188 83.550781 L 204.140625 66.007812 C 204.097656 65.757812 204.058594 65.503906 204.039062 65.246094" fill="#c5856d"/></g><g clip-path="url(#b)" id="change1_24"><path d="M 306.574219 425.949219 L 306.328125 426.019531 L 249.074219 246.835938 L 249.019531 246.671875 L 249.148438 246.558594 C 257.414062 239.1875 259.867188 216.054688 256.058594 181.425781 C 252.222656 146.558594 242.320312 102.949219 228.164062 58.605469 L 218.886719 61.570312 L 218.785156 61.363281 C 217.441406 58.492188 214.417969 56.742188 211.265625 57.003906 C 207.078125 57.347656 203.953125 61.039062 204.300781 65.226562 C 204.320312 65.460938 204.351562 65.699219 204.398438 65.960938 L 204.441406 66.1875 L 149.574219 83.71875 C 163.914062 128.546875 181.3125 170.140625 198.582031 200.875 C 215.75 231.421875 231.222656 248.539062 242.15625 249.070312 L 242.339844 249.082031 L 299.488281 427.9375 L 299.566406 428.179688 L 299.328125 428.265625 C 283.488281 433.84375 272.125 441.476562 273.453125 445.640625 C 274.894531 450.148438 290.828125 449.257812 308.25 443.691406 C 316.878906 440.933594 324.707031 437.453125 330.285156 433.890625 C 335.695312 430.4375 338.410156 427.234375 337.726562 425.101562 C 336.953125 422.679688 331.996094 421.792969 324.800781 422.390625 C 319.636719 422.816406 313.320312 424.011719 306.574219 425.949219 Z M 272.953125 445.800781 C 271.519531 441.3125 282.664062 433.613281 298.910156 427.855469 L 241.949219 249.585938 C 230.839844 248.867188 215.289062 231.675781 198.125 201.132812 C 180.804688 170.3125 163.355469 128.582031 148.992188 83.628906 L 148.914062 83.378906 L 203.84375 65.824219 C 203.8125 65.636719 203.792969 65.449219 203.777344 65.269531 C 203.40625 60.792969 206.746094 56.851562 211.222656 56.480469 C 214.515625 56.203125 217.675781 57.988281 219.160156 60.933594 L 228.503906 57.945312 L 228.585938 58.195312 C 242.792969 102.65625 252.734375 146.398438 256.582031 181.367188 C 260.386719 215.996094 257.917969 239.226562 249.625 246.835938 L 306.675781 425.371094 C 323.25 420.644531 336.792969 420.457031 338.226562 424.941406 C 339 427.355469 336.277344 430.691406 330.570312 434.335938 C 324.949219 437.917969 317.082031 441.417969 308.410156 444.191406 C 300.1875 446.816406 292.515625 448.40625 286.417969 448.914062 C 278.941406 449.53125 273.824219 448.523438 272.953125 445.800781" fill="#c5856d"/></g><g id="change1_3"><path d="M 184.925781 63.667969 C 180.585938 64.027344 176.777344 60.800781 176.417969 56.464844 C 176.058594 52.125 179.285156 48.316406 183.621094 47.957031 C 187.960938 47.597656 191.769531 50.820312 192.128906 55.160156 C 192.488281 59.5 189.261719 63.308594 184.925781 63.667969" fill="#c5856d"/></g><g id="change1_4"><path d="M 176.679688 56.441406 C 177.027344 60.628906 180.714844 63.753906 184.902344 63.40625 C 189.089844 63.058594 192.214844 59.371094 191.867188 55.183594 C 191.519531 50.996094 187.832031 47.871094 183.644531 48.21875 C 179.457031 48.566406 176.332031 52.253906 176.679688 56.441406 Z M 176.15625 56.484375 C 175.785156 52.007812 179.125 48.066406 183.601562 47.695312 C 188.078125 47.324219 192.019531 50.664062 192.390625 55.140625 C 192.761719 59.613281 189.421875 63.558594 184.945312 63.929688 C 180.46875 64.300781 176.527344 60.960938 176.15625 56.484375" fill="#c5856d"/></g><g id="change1_5"><path d="M 198.421875 35.65625 C 194.085938 36.015625 190.273438 32.789062 189.914062 28.449219 C 189.554688 24.113281 192.78125 20.304688 197.121094 19.945312 C 201.460938 19.585938 205.265625 22.8125 205.628906 27.148438 C 205.988281 31.488281 202.761719 35.296875 198.421875 35.65625" fill="#c5856d"/></g><g id="change1_6"><path d="M 190.175781 28.429688 C 190.523438 32.617188 194.214844 35.742188 198.402344 35.394531 C 202.585938 35.046875 205.710938 31.359375 205.363281 27.171875 C 205.019531 22.984375 201.328125 19.859375 197.140625 20.207031 C 192.953125 20.554688 189.832031 24.242188 190.175781 28.429688 Z M 189.652344 28.472656 C 189.28125 23.996094 192.621094 20.054688 197.097656 19.683594 C 201.574219 19.3125 205.519531 22.652344 205.890625 27.128906 C 206.261719 31.605469 202.921875 35.546875 198.445312 35.917969 C 193.96875 36.289062 190.023438 32.949219 189.652344 28.472656" fill="#c5856d"/></g><g id="change1_7"><path d="M 81.695312 103.335938 C 77.355469 103.695312 73.546875 100.46875 73.1875 96.132812 C 72.828125 91.792969 76.054688 87.984375 80.394531 87.625 C 84.730469 87.265625 88.539062 90.492188 88.902344 94.828125 C 89.261719 99.167969 86.035156 102.976562 81.695312 103.335938" fill="#c5856d"/></g><g id="change1_8"><path d="M 73.449219 96.109375 C 73.796875 100.296875 77.488281 103.421875 81.671875 103.074219 C 85.859375 102.726562 88.984375 99.039062 88.636719 94.851562 C 88.289062 90.664062 84.601562 87.539062 80.414062 87.886719 C 76.226562 88.234375 73.101562 91.921875 73.449219 96.109375 Z M 72.925781 96.152344 C 72.554688 91.675781 75.894531 87.734375 80.371094 87.363281 C 84.847656 86.992188 88.789062 90.332031 89.160156 94.808594 C 89.53125 99.28125 86.195312 103.226562 81.71875 103.597656 C 77.242188 103.96875 73.296875 100.628906 72.925781 96.152344" fill="#c5856d"/></g><g id="change1_9"><path d="M 124.207031 94.539062 C 119.867188 94.898438 116.058594 91.671875 115.699219 87.335938 C 115.339844 82.996094 118.566406 79.1875 122.902344 78.828125 C 127.242188 78.46875 131.050781 81.695312 131.410156 86.03125 C 131.769531 90.371094 128.546875 94.179688 124.207031 94.539062" fill="#c5856d"/></g><g id="change1_10"><path d="M 115.960938 87.3125 C 116.308594 91.5 119.996094 94.625 124.183594 94.277344 C 128.371094 93.929688 131.496094 90.242188 131.148438 86.054688 C 130.800781 81.867188 127.113281 78.742188 122.925781 79.089844 C 118.738281 79.4375 115.613281 83.125 115.960938 87.3125 Z M 115.4375 87.355469 C 115.066406 82.878906 118.40625 78.9375 122.882812 78.566406 C 127.359375 78.195312 131.300781 81.535156 131.671875 86.011719 C 132.042969 90.488281 128.703125 94.429688 124.226562 94.800781 C 119.753906 95.171875 115.808594 91.832031 115.4375 87.355469" fill="#c5856d"/></g><g id="change1_11"><path d="M 162.113281 36.554688 C 158.929688 36.820312 156.136719 34.453125 155.875 31.273438 C 155.609375 28.089844 157.976562 25.296875 161.15625 25.035156 C 164.339844 24.769531 167.132812 27.136719 167.394531 30.316406 C 167.660156 33.5 165.292969 36.292969 162.113281 36.554688" fill="#c5856d"/></g><g id="change1_12"><path d="M 156.136719 31.253906 C 156.386719 34.285156 159.058594 36.546875 162.089844 36.296875 C 165.121094 36.042969 167.386719 33.371094 167.132812 30.339844 C 166.882812 27.308594 164.210938 25.046875 161.179688 25.296875 C 158.148438 25.546875 155.882812 28.21875 156.136719 31.253906 Z M 155.613281 31.296875 C 155.335938 27.972656 157.816406 25.046875 161.136719 24.773438 C 164.457031 24.496094 167.382812 26.976562 167.65625 30.296875 C 167.933594 33.617188 165.453125 36.542969 162.132812 36.816406 C 158.8125 37.09375 155.886719 34.613281 155.613281 31.296875" fill="#c5856d"/></g><g id="change1_13"><path d="M 104.53125 73.496094 C 104.796875 76.675781 102.433594 79.46875 99.25 79.734375 C 96.070312 79.996094 93.277344 77.632812 93.011719 74.449219 C 92.746094 71.269531 95.113281 68.476562 98.292969 68.210938 C 101.476562 67.949219 104.269531 70.3125 104.53125 73.496094" fill="#c5856d"/></g><g id="change1_14"><path d="M 93.273438 74.429688 C 93.523438 77.460938 96.195312 79.722656 99.226562 79.472656 C 102.261719 79.21875 104.523438 76.550781 104.273438 73.515625 C 104.019531 70.484375 101.347656 68.222656 98.316406 68.472656 C 95.285156 68.726562 93.023438 71.394531 93.273438 74.429688 Z M 92.75 74.472656 C 92.472656 71.152344 94.953125 68.226562 98.273438 67.949219 C 101.59375 67.675781 104.519531 70.152344 104.796875 73.472656 C 105.070312 76.796875 102.59375 79.71875 99.273438 79.996094 C 95.949219 80.269531 93.023438 77.792969 92.75 74.472656" fill="#c5856d"/></g><g id="change1_15"><path d="M 115.925781 64.640625 C 112.746094 64.90625 109.953125 62.539062 109.6875 59.359375 C 109.425781 56.175781 111.789062 53.382812 114.972656 53.117188 C 118.152344 52.855469 120.945312 55.222656 121.210938 58.402344 C 121.476562 61.585938 119.109375 64.378906 115.925781 64.640625" fill="#c5856d"/></g><g id="change1_16"><path d="M 109.949219 59.335938 C 110.203125 62.367188 112.875 64.628906 115.90625 64.378906 C 118.9375 64.128906 121.199219 61.457031 120.949219 58.425781 C 120.699219 55.390625 118.027344 53.128906 114.992188 53.382812 C 111.960938 53.632812 109.699219 56.304688 109.949219 59.335938 Z M 109.425781 59.378906 C 109.152344 56.058594 111.628906 53.132812 114.949219 52.855469 C 118.273438 52.582031 121.195312 55.058594 121.472656 58.382812 C 121.746094 61.703125 119.269531 64.628906 115.949219 64.902344 C 112.628906 65.179688 109.703125 62.699219 109.425781 59.378906" fill="#c5856d"/></g><g id="change1_17"><path d="M 101.972656 45.761719 C 99.800781 45.941406 97.898438 44.328125 97.71875 42.15625 C 97.535156 39.988281 99.148438 38.085938 101.320312 37.902344 C 103.488281 37.726562 105.394531 39.335938 105.574219 41.507812 C 105.753906 43.675781 104.140625 45.578125 101.972656 45.761719" fill="#c5856d"/></g><g id="change1_18"><path d="M 97.980469 42.136719 C 98.148438 44.15625 99.925781 45.664062 101.949219 45.496094 C 103.96875 45.328125 105.480469 43.550781 105.3125 41.527344 C 105.144531 39.507812 103.363281 37.996094 101.339844 38.164062 C 99.320312 38.335938 97.8125 40.113281 97.980469 42.136719 Z M 97.457031 42.179688 C 97.265625 39.867188 98.988281 37.835938 101.296875 37.644531 C 103.609375 37.449219 105.644531 39.175781 105.835938 41.484375 C 106.027344 43.796875 104.300781 45.828125 101.992188 46.023438 C 99.683594 46.214844 97.648438 44.488281 97.457031 42.179688" fill="#c5856d"/></g><g id="change1_19"><path d="M 180.585938 8.132812 C 178.414062 8.3125 176.511719 6.699219 176.332031 4.53125 C 176.152344 2.359375 177.765625 0.457031 179.933594 0.277344 C 182.101562 0.0976562 184.007812 1.710938 184.1875 3.878906 C 184.367188 6.046875 182.753906 7.953125 180.585938 8.132812" fill="#c5856d"/></g><g id="change1_20"><path d="M 176.59375 4.507812 C 176.761719 6.527344 178.542969 8.035156 180.5625 7.871094 C 182.585938 7.703125 184.09375 5.921875 183.925781 3.898438 C 183.757812 1.878906 181.976562 0.371094 179.957031 0.539062 C 177.933594 0.703125 176.425781 2.488281 176.59375 4.507812 Z M 176.070312 4.550781 C 175.878906 2.242188 177.601562 0.207031 179.914062 0.015625 C 182.222656 -0.175781 184.257812 1.546875 184.449219 3.855469 C 184.640625 6.167969 182.917969 8.203125 180.605469 8.394531 C 178.296875 8.585938 176.261719 6.863281 176.070312 4.550781" fill="#c5856d"/></g><g id="change1_21"><path d="M 168.644531 70.816406 C 168.90625 74 166.542969 76.792969 163.359375 77.054688 C 160.179688 77.320312 157.386719 74.953125 157.121094 71.773438 C 156.859375 68.589844 159.222656 65.796875 162.40625 65.535156 C 165.585938 65.269531 168.378906 67.636719 168.644531 70.816406" fill="#c5856d"/></g><g id="change1_22"><path d="M 157.382812 71.75 C 157.636719 74.78125 160.304688 77.046875 163.339844 76.796875 C 166.371094 76.542969 168.632812 73.871094 168.382812 70.839844 C 168.128906 67.808594 165.460938 65.546875 162.425781 65.796875 C 159.394531 66.046875 157.132812 68.71875 157.382812 71.75 Z M 156.859375 71.796875 C 156.585938 68.472656 159.0625 65.546875 162.382812 65.273438 C 165.703125 64.996094 168.628906 67.476562 168.90625 70.796875 C 169.179688 74.117188 166.703125 77.042969 163.382812 77.316406 C 160.0625 77.59375 157.136719 75.113281 156.859375 71.796875" fill="#c5856d"/></g></g></svg>