<?xml version="1.0" encoding="UTF-8" standalone="no"?><svg xmlns="http://www.w3.org/2000/svg" xmlns:xlink="http://www.w3.org/1999/xlink" fill="#689d71" height="500.5" preserveAspectRatio="xMidYMid meet" version="1" viewBox="-1.7 -0.0 335.1 500.5" width="335.1" zoomAndPan="magnify"><g id="change1_1"><path d="M328.5,387c-0.1-0.1-0.2-0.1-0.2-0.2c-0.9-0.7-2.1-1.3-3.4-1.8c-3.2-1.3-6.7-1.9-10.3-2.3 c-5.7-0.7-11.4-0.9-13.8-1.5c-5.7-1.2-11.2-3.5-16.5-6.3c-1.5-0.8-2.8-1.6-4.1-2.4c-0.1-0.1-1.6-1-1.6-1l0.8-0.6 c0.1-0.1,0.1-0.1,0.1-0.1c-0.9-7-1.1-14.2-0.6-21.3c0.3-3.8,1.1-7.5,1.9-11.1c0.6-2.9,1.3-5.9,1.6-8.9c0.3-2.3-0.3-4.5-1-6.5 c-0.2-0.6-0.4-1.1-0.7-1.7c-0.3-0.7-0.7-1.4-0.9-2.2c-0.7-2.1-0.4-4.3-0.2-6.3c0.1-1.7,0.3-3.4,0.5-5c0.5-4.2,1-8.2,0.4-12.6 c-0.3-2.3-0.9-4.2-1.7-5.8c-1.5-3,0.2-4.5,1.9-5.9c0.3-0.3,0.7-0.6,1-0.9c2.9-2.7,4.5-6.7,4.9-11.9c0.1-1.1-0.1-6.3-1.2-9.6 l-0.2-0.6l0.5-0.3c3.9-2,7.6-12.2,7.7-15.6l-1.7-0.7l2-0.5c0.3-0.1,0.6-0.2,0.9-0.3l-0.1-1.3l1.2,0.6c2.6-0.2,4.3-1.3,6.2-3 c0.6-0.5,1.1-1,1.6-1.5c2.1-2.1,3.9-3.9,7.5-4.6c1.8-0.4,3.2-0.8,4.6-1.6c0.5-0.3,0.3-1.6,0.2-2.3c0-0.2-0.1-0.3-0.1-0.5 c-0.3-5.2-1.9-10.3-3.4-14.7c-1.7-5.5-3.9-11-6.1-16.3c-1.4-3.6-2.9-7.2-4.2-10.9c-1.5-4.1-3.2-9.1-3.7-14.7 c-0.3-3.5-0.3-7-0.3-10.5c0-1.7,0-3.5,0-5.2c-0.1-5.9-0.8-12-1.4-17.9c-0.4-3.8-0.8-7.7-1.1-11.5c-0.6-9-2.1-18.4-4.6-29.7 c-0.3-1.5-0.7-3-1-4.5c-1.4-6.9-2.9-14-6.5-20.1c-1.6-2.6-3.7-4.9-5.8-7.1l-0.7-0.8c-1.8-2-4-4.2-6.8-5.5l-0.3-0.1l-0.1-0.4 c0-0.1,0-0.1-0.1-0.1c0,0-0.3,0-0.3,0l-0.8-0.5l0.5-0.6c0.4-0.5,0.5-1,0.4-1.5c-0.2-0.9-1-2-2.2-2.8l-0.6-0.3l0.3-0.6 c0-1.1-0.5-2.6-3.9-2.9l-0.5-0.1l-0.1-0.5c-0.9-2.1-2.5-3.4-5-4c-0.3-0.1-0.7-0.2-1.1-0.3c-0.8-0.2-1.6-0.5-2.4-0.5 c-0.3,0-0.5,0-0.7,0.1c-0.7,0.2-1.4,0.6-2,1l-0.4,0.3l-0.4-0.3c-1.4-1.2-2.3-2.8-3.1-4.4l-0.2-0.4c-1.5-2.4-0.9-5-0.3-7.5 c0.2-0.7,0.3-1.3,0.4-2c0.5-2.6,0.4-5.1-0.1-7.6l-0.1-0.4l0.4-0.3c0.1-0.1,0.3-0.2,0-0.9c-0.2-0.4-0.5-0.9-0.7-1.4 c-0.3-0.4-0.5-0.8-0.6-1.2l-0.1,0l-0.1-0.3l0-0.1v0c-0.1-0.6,0-1.1,0-1.7c0-0.5,0.1-1,0-1.5c-0.1-0.8-0.6-1.3-1-1.7 c-0.2-0.2-0.4-0.3-0.6-0.5c-0.4-0.3-0.8-0.6-1.3-0.9c-0.7-0.4-1.4-0.8-1.9-1.5c-0.5-0.8-0.6-1.4-0.7-2.1c-0.1-0.3-0.1-0.6-0.2-0.8 c-0.4-0.8-0.9-1.3-1.6-1.7c-0.1-0.1-0.2-0.1-0.3-0.2c-0.3-0.1-0.7-0.3-1.1-0.4c-0.3-0.1-0.5-0.1-0.8-0.2l-0.4-0.1 c-0.3-0.1-0.6-0.1-0.9-0.2c-0.1,0-0.3-0.1-0.5-0.1c-0.7-0.2-1.1-0.4-1.5-0.6c-0.6-0.3-1-0.7-1.4-1.4c-0.1-0.1-0.2-0.3-0.4-0.5 c-0.1-0.1-0.2-0.2-0.3-0.3c-0.2-0.2-0.3-0.4-0.5-0.6c-0.1-0.2-0.2-0.3-0.4-0.4c-0.2-0.2-0.3-0.3-0.4-0.4c-0.1-0.1-0.3-0.2-0.5-0.2 c-0.2-0.1-0.4-0.1-0.6-0.1l-0.1,0c-1,0.1-1.9,0.7-2.8,1.4c-0.9,0.7-1.9,1.3-3,1.5c-0.2,0-0.5,0.1-0.8,0.1c-0.9,0-1.6-0.2-2.4-0.5 l-0.3-0.1c-0.7-0.3-1.4-0.5-2.2-0.5c0,0,0,0,0,0c-0.2,0-0.4,0-0.6,0.1c-1.3,0.4-1.9,1.4-2.6,2.4c-0.7,1-1.4,2-2.7,2.6 c-0.3,0.2-0.6,0.3-1,0.4c-0.2,0-0.3,0.1-0.5,0.1c-0.7,0.1-1.4,0.1-2,0.1l-0.5,0c-0.6,0-1.2,0-1.7,0.2c-0.1,0-0.2,0.1-0.4,0.1 c-0.4,0.1-0.7,0.3-0.9,0.5c-0.2,0.2-0.3,0.3-0.4,0.5c-0.1,0.1-0.1,0.2-0.1,0.3c-0.1,0.3-0.2,0.7-0.3,1.1l-0.1,0.4 c-0.1,0.3-0.1,0.6-0.2,0.9c-0.1,0.5-0.3,0.9-0.5,1.3c-0.1,0.1-0.2,0.3-0.3,0.4c-0.3,0.4-0.8,0.8-1.3,1.1l-0.1,0l-0.1,0 c-0.4,0.1-0.8,0.2-1.1,0.3c-0.8,0.1-1.2,0.2-1.5,0.8c-0.4,0.5-0.3,0.8-0.3,1c0,0.1,0,0.2,0.1,0.3l0.1,0.3c0.1,0.3,0.2,0.6,0.2,0.9 c0.3,1.2,0.1,2.6-0.1,3.9c-0.2,1.1-0.3,2.1-0.1,2.9c0,0.1,0,0.2,0.1,0.2l0,0.1c0,0.1,0.1,0.2,0.2,0.3c0.1,0.1,0.1,0.1,0.2,0.2 c0.1,0.1,0.2,0.1,0.3,0.2c0.1,0.1,0.3,0.1,0.6,0.1c0.1,0,0.3,0,0.4,0l0.9,0l-0.2,0.8c-0.6,2.3-0.5,4.4,0.3,6.7 c0.6,1.8,1.9,3.5,3,5.1c0.8,1.1,1.7,2.2,2.3,3.4c1.5,2.9,1,5.2-0.3,8.1l-0.1,0.2c-0.2,0.6-0.5,1.3-0.3,1.9c0.1,0.5,0.5,0.8,1.2,1.2 l0.1,0c2.3,1.1,3.1,2.5,4.1,4.3l0.4,0.7c0.5,0.9,1.1,2,1.6,3l0.4,0.7l0,0.1c0,0.2,0.1,0.3,0.1,0.5c0.1,0.3,0.3,0.6,0.7,1l0.1,0.1 l0,0.1c0.9,1.5,1.6,2.6,2.5,3.4l0.2,0.2l0,0.3c0,0.5,0,1-0.1,1.5l-0.1,0.8c-0.1,0.9-0.1,1.5,0.3,2c0.3,0.3,1.2,0.6,2.8,0.6 c0.9,0,1.8-0.1,2.5-0.3l1.5-0.4l-0.8,1.4c-3.7,6.6-7.4,12.1-11.1,16.2c-2.6,2.9-6.3,5.4-10.3,6.9c-1.5,0.6-3.1,0.8-5.1,0.8 c-0.9,0-1.8-0.1-2.7-0.1c-0.9-0.1-1.8-0.1-2.7-0.1c-0.4,0-0.8,0-1.2,0l-0.4,0l-0.2-0.4c0,0,0,0,0,0c0-0.1,0-0.1,0-0.2 c-0.9-1.7-1.9-1.1-3.5-1.1c-1.5,0-1.3-0.2-2.4-1.3c-1.3-1.2-1.6-0.9-1.6,0l-0.1,1l-0.9-0.5c-1.5-0.8-3.3-2.1-4.2-4l-0.5-1l0.7,0 c-0.4-0.6-0.6-1.2-0.6-1.8c0-0.6,0.3-1.5,1.5-2.2l0.5-0.3c0.9-0.6,1.3-0.9,1.5-1.5l0.2-0.9l0.8,0.5c3,1.7,5.9,2.6,8.6,2.6 c0.6,0,1.2,0,1.7-0.1c4.8-0.7,6.7-4.1,6-10.7c0-0.4-0.1-0.7-0.1-1.1c-0.3-1.9-0.6-4.3,1.7-5.6c0.4-0.2,0.4-0.8,0.4-1 c0-0.5-0.3-0.8-0.8-1.3l-0.2-0.2c-1.9-1.9-3.5-3.8-4.1-7.1c-0.2-1-0.3-2-0.4-3l0-0.2l0,0l0,0l0-0.2c-0.3-2.5-0.6-5.1-1.4-7.2 c-0.2-0.6-0.4-1-0.7-1.5c-0.7-1.2-1.5-2-2.7-2.5c-0.3-0.1-0.5-0.3-0.8-0.4l-0.6-0.3l0.2-0.6c0.1-0.4,0.2-0.8,0.1-1.1 c-0.1-0.2-0.2-0.4-0.3-0.5l0,0l0,0c-0.5-0.7-1.7-0.8-3-1c-0.9-0.1-1.9-0.3-2.7-0.6c-1-0.6-1.9-1.2-2.8-1.9c-1.1-0.8-2.1-1.5-3.2-2 c-2.2-1-4.1-1.7-6.2-2c-0.8-0.1-1.5-0.2-2.3-0.2c-2.2,0-4.3,0.4-6,1.3c-2.7,1.3-6.5,3.3-9.2,6.1c-2.1,2.1-3.9,5.1-4.6,7.9 c-0.4,1.7-0.6,4.4-0.1,7.1l0.3,1.4l-1.3-0.6c-0.7-0.3-1.4-0.5-2.1-0.5c-5.5,0-12.5,8.3-15.1,11.5c-2.9,3.5-5.4,6.9-7.6,10.4 c-0.2,0.4-0.4,0.7-0.6,0.9c-5.6,8.1-8.4,16.5-10.3,25.4c-1,4.5-1.9,9-2.7,13.5c-0.7,3.7-1.4,7.5-2.2,11.2 c-2.3,10.6-4.8,19.9-7.4,28.4C94.4,167.7,90.7,177,86,186c-2.1,4.1-4.6,8.2-7,12.1c-2.5,4.1-5.1,8.4-7.3,12.7 c-3.2,6.4-5.2,12.7-6,19.3c-0.5,3.4-0.8,6.9-1.1,10.3c-0.4,4.5-0.8,9.2-1.6,13.8c-0.2,1.4-0.4,2.7-0.7,4.1c-1.1,6.8-2.2,13.8-5,20.4 c-1,2.4-2.2,4.7-3.3,7c-0.6,1.3-1.3,2.6-1.9,3.9c-0.9,1.9-1.7,3.9-2.5,5.8c-0.8,1.9-1.6,4-2.5,5.9c-1.8,3.7-3.8,7.3-5.8,10.8 c-1.7,3.1-3.6,6.3-5.2,9.6c-3.9,7.8-6.1,15.9-7.5,22c-0.9,3.8-1.7,7.8-2.4,11.6c-0.7,3.8-1.5,7.8-2.4,11.6c-1.6,7-4.1,13.4-6.8,20.2 c-0.3,0.7-0.6,1.4-0.8,2.1c-0.2,0.6-0.5,1.2-0.7,1.8l0.8,1.1l-0.3,0.2c-1.9,1.4-3.7,2.8-5.3,4.4c-0.3,0.3-0.6,0.6-0.9,0.9 c-0.1,0.1-0.2,0.2-0.3,0.3c-0.4,0.4-0.7,0.8-1.1,1.2c-0.1,0.1-0.2,0.2-0.2,0.2c-0.2,0.2-0.4,0.5-0.6,0.8c-1,1.2-2,2.5-2.8,3.8 c-2.9,4.5-5.7,11-2.8,15.9c0.7,1.2,1.6,2.1,2.6,3.2c0.6,0.7,1.2,1.3,1.8,2.1c1.5,2,1.8,4.2,0.9,6.7l0,0.1l-0.1,0.1 c-0.3,0.4-0.7,0.9-1,1.3l0.4-0.1c-1.1,1.9-2.3,3.4-2.7,5.3c0,0.1,0,0.2-0.1,0.3c-1.5,5.8,1.5,13.2,3.6,17.5 c2.2,4.5,6.8,9.7,12.7,9.7c0.5,0,1.1,0,1.6-0.1c1.5-0.2,2.8-0.9,4.3-1.5c1.4-0.6,2.8-1.3,4.3-1.6c0.5-0.1,1.1-0.2,1.6-0.2 c3.1,0,5.4,2,7.6,3.9c0.8,0.7,1.6,1.3,2.4,1.9c3.9,2.8,8,4,13.6,4c2.2,0,4.4-0.2,6.6-0.4c1.4-0.1,2.7-0.2,3.9-0.2 c3,0,5.6,0.4,8.1,1.2c4,1.3,7,4.6,9.7,7.5l0.2,0.2c6.4,6.8,12,11,18.9,14c7.1,3.1,15.3,4.8,24.4,5.1c0.6,0,1.2,0,1.9,0 c5.9,0,13.7-0.9,17.8-4.9l0.4-0.4l0.5,0.3c4.1,2.8,15.2,3.8,18.8,4.1l0.9,0.1c1.5,0.2,3,0.3,4.5,0.3c1.6-0.1,3.1-0.5,4.7-0.9 c1.7-0.5,3.5-0.9,5.5-0.9c0.6,0,1.1,0,1.7,0.1l0.5,0.1c5,0.8,9.8,1.5,14.8,1.5c5,0,10.7-0.4,14.6-3.5c1-0.8,1.6-1.5,1.9-2.4l0.4-1.1 l0.8,0.8c0.6,0.6,1.5,1.1,2.5,1.5c2.2,0.8,4.5,1.3,6.6,1.3c3.7,0,6.9-1.3,9.5-3.7c0.5-0.5,1-1,1.5-1.4c2.1-2.1,4.2-4.1,6.8-5.8 c4-2.6,8.1-4.1,13.6-5c4.3-0.7,8.9-1.4,13.7-1.4c0.3,0,0.6,0,0.9,0c3.5,0,7,0.6,10.3,1.2c0.7,0.1,1.5,0.3,2.2,0.4 c1.7,0.3,4,0.7,6.1,0.7c3.1,0,5.7-0.8,8-2.4c2.3-1.6,4.1-3.9,5.9-6.2c0.3-0.4,0.6-0.8,0.9-1.2c1.9-2.4,3.6-5,3.2-8.6 c-0.4-2.4-1.9-4-3.9-5.9c-2.2-2.3-2.9-4.4-1.8-6.5c0.6-1.3,1.9-2.1,3-2.9c0.4-0.3,0.9-0.6,1.2-0.9c3.6-3.1,2.4-7.4,1.1-11.9 c-0.8-2.8-1.6-5.8-1.2-8.5c0.6-3.8,3.4-6.4,6.1-8.8c2.7-2.4,5.3-4.8,5.7-8.3c0.4-3.9,0.7-7.2,3.9-10.2c1.1-1.1,2.6-1.5,4.1-1.9 c1.3-0.4,2.5-0.7,3.4-1.5c1.1-0.9,1.6-2.1,1.5-3.4C331.2,389.9,330.1,388.1,328.5,387z M229.7,294.6c0-0.1,0-0.3,0-0.4 c-5.7-7.1-11.5-16.1-15.3-24.4c-4.3-7.4-3.9-13-3.9-21.3l1.1,1.2c2.3,2.5,6.3,4.6,11.8,6.2l0.5,0.2l0,0.6 c-0.4,7.3,0.3,12.6,2.3,17.2l0.2,0.5c1.4,3.3,2.7,6.4,3.1,10.2c0.3,2.9,0.4,5.8,0.4,8.2l0,2.3L229.7,294.6z" fill="#ffffff"/></g><g id="change2_1"><path d="M250.5,45.4c-0.8,0.5-1.4,1-2.6,1.3c-3.2,0.9-7.1,1.9-9.7,4.3c-2.1,2-4,5.4-5.4,8.5 c-0.2,1.2-0.6,2.4-1.2,3.5c-0.7,1.1-2.4,0.1-1.7-1c2-3.3,0.9-8.5-0.9-11.7c-0.5-1-1.3-2.2-2.2-3.5c-0.3,1.6-0.6,3.2-0.8,3.7 c-0.7,1.8-1.4,3.7-2.6,5.3c-0.1,0.1-0.1,0.2-0.2,0.4c-1.5,2.1-3.4,4-5.6,5.1c-1.4,0.9-2.8,1.4-4.4,1.5c-0.6,0-0.9-0.4-0.9-0.8 c-0.2-0.2-0.3-0.6-0.3-0.9c-0.8-1.3-1.7-2.7-2.4-4c-0.6-1.3-0.9-1.7-2.2-2.6c-0.9-0.4-2.2-0.4-2.6-1.7c-0.4-1.4,1.8-4,1.8-5.7 c0-5-4.5-8.4-6.5-12.8c-1.1-2.4-1.2-4.7-0.6-7.1c0.1,0,0.1,0,0.2,0c0.1-0.6,0.3-1.2,0.9-1.5c0.8-0.4,1.7-0.5,2.5-0.7 c1.3-0.3,2.7-0.7,3.8-1.5c0.7-0.5,1.4-0.9,2.3-1c0.9-0.1,1.2,0.9,0.8,1.5c1.3,3.3,3.9,8.5,7.9,5.6c2.1-1.6,4-3.5,6.2-5 c2.2-1.5,5.3-4.4,8-3c1.8,0.3,3.5,1.4,5.2,0.6c3.4-1.5,5.8,0.1,9.1,1c0.1,0,0.1,0,0.1,0.1c0.2,0,0.3-0.1,0.5-0.2 c0.6,3.3,0.3,6.6-0.5,10c-0.6,2.8-1.3,4.5,0.2,7.1C247.6,41.8,248.9,44.4,250.5,45.4z M194.1,163.8c-0.9-1.2-2.2-2-3.2-3.1 c-1.1-1.5-2.1-2.9-3.7-3.9c-2.5-1.7-5.9-2.4-8.8-3.2c-1.3-0.3-3.1-0.9-4.4-0.3c-1.7,1-0.8,2.9,0.2,3.9c1.2,1,2.5,1.2,3.6,1.8 c0.8,0.6,1.4,1.6,1.9,2.4c-1.8,0.2-3.8,1.2-5.7,1.5c-1.2,0.2-2.5,0-3.6,0c-1.1,0-2.8-0.5-3.9-0.2c-1.1,0.5-2.6,1.6-2.1,2.9 c0.1,0.3,0.4,0.6,0.7,0.8l-0.1,0.3c-1,0.4-3,0.6-3.6,1.4c-0.1,0.1-0.1,0.2-0.2,0.3c-0.8,1.4,0.8,2.8,2.4,3.3l-0.2,0.6 c-0.8,0-1.6-0.2-2.4,0.3c-1.9,1.3,2,3.4,3.3,4.3c0.8,0.4,1.5,0.7,2.3,0.9c0.2,0.1,0.5,0.1,0.7,0.2c-0.2-0.1-0.5-0.1-0.7-0.2 c-1.4-0.2-3,0.1-2.9,1.3c0.2,1.7,4.5,3,6,3.2c3.3,0.3,5.6,1.3,8.8,1.3c3.1,0,7.1,0.5,9.9-0.6c1.8-0.7,3.1-1.3,5-1.5 c1.6,0,2.7,0.6,4.2,1.1c-1.5-3.2-2.6-6.2-3.3-8.2C193.2,171.4,191.2,166.1,194.1,163.8z" fill="#d0b084"/></g><g id="change3_1"><path d="M314.8,231.4c-1.9,1.6-4.9,1.6-7.5,2.6c-4.2,1.9-6.5,8.4-12,8.4l-1,1c-1.1,0-2,0.5-2.9,0.8 c-0.1,0.1-0.2,0.1-0.4,0.1c-4.2,1.9-8.1,4.5-12.3,6.5c-10.1,3.6-21.1,4.2-31.5,5.5c-7.4,0.9-16.3,1.2-23.7-0.7 c-0.7-0.2-1.3-0.4-2-0.6c-3.6-1.3-8.4-3.6-10.7-6.5c-0.2-0.4-0.4-0.9-0.6-1.3c-1-2.8-1.1-6.2-1.4-8.7c-0.4-14.5,0.9-27.1,0.9-41.5 c-4.9-1-9.1-8-12.1-14.4c-1.5-3.2-2.6-6.2-3.3-8.2c-1.1-3-3.1-8.3-0.2-10.6c0.1-0.1,0.1-0.1,0.2-0.1c2.2-1.6,7-2,10.6-2.6 c0.9-0.2,1.6-0.3,2.3-0.6c4.5-1.5,8.8-3.2,13-5.3c4.1-2.1,7.3-4.7,11.3-7.1c3.3-2,5.7-1.8,8.4-0.7c0.6,1.9,1.6,3.4,3.2,2.5 c0,0,0-0.1,0-0.1c-1.6,0.9-2.6-0.5-3.2-2.4c0,0,0,0,0,0c-0.5-1.4-0.8-3.1-0.9-3.9c1.6-0.3,3,0.3,4.5,0.9c0,0-0.1-0.1-0.1-0.1 c-1.4-0.5-2.9-1.2-4.5-0.9c0.1,0.8,0.4,2.4,0.9,3.9c-2.7-1.1-5.1-1.3-8.4,0.7c-4,2.4-7.1,5.1-11.3,7.1c-4.2,2.1-8.6,3.9-13,5.3 c-0.7,0.2-1.4,0.4-2.3,0.6v-0.1c-0.6-3.9,0.3-10.7,0.3-15.6c0.3-0.3,0.7-0.6,1-1c4.2-5.2,3.6-12.7,2.6-19.2l-0.2-0.6 c1.1-0.3,2.2-0.6,3.3-1c2.6-1,5.2-1.5,7.8-2.6c1.9-1,3.9-2.4,5.5-3.7c2.9-2.4,4.7-6.3,6.5-9.4c0.7-1.4,1.4-2.9,2-4.4 c-1,6.9,2.4,14.9,3.2,21.1c0.6,4.2-1.1,8.5-0.2,12.7c0.3,1.4,0.9,2.3,1.8,3.2c-0.8-0.8-1.5-1.8-1.7-3.1c-0.9-4.2,0.8-8.5,0.2-12.7 c-0.8-6.1-4.2-14.2-3.2-21.1c0.9-2.1,1.8-4.3,2.7-6.5c2.3-5.8,3.6-12.2,5-18.3c0.5-2.3,1.3-4.4,2.1-6.5c1-2.8,1.1-5,3.9-6.5 c1.1-0.6,2.4-1.1,3.7-1.8c1.3-0.8,2.1-2.1,3.2-3.1c1.6-1.4,10.5-1.8,14.8-1.8c4.2,1.3,8.1,6.8,11,10.1c5.2,5.5,7.5,13.6,8.8,21.1 c1.6,7.1,3.2,14.3,4.5,21.4c1.6,8.8,1.6,17.9,2.6,26.6c0.6,7.1,1.6,14,1.6,21.1c0,7.5-0.3,15.3,1.9,22.1c3.9,12,9.7,24,13,36.4 C313.8,222.3,314.8,226.9,314.8,231.4z" fill="#689d71"/></g><g id="change4_1"><path d="M269.3,58.9c-0.1,0-0.1,0-0.2,0c-4.3,0-13.2,0.3-14.8,1.8c-1.1,1-1.9,2.3-3.2,3.1c-1.3,0.6-2.6,1.1-3.7,1.8 c-2.8,1.5-2.9,3.7-3.9,6.5c-0.8,2.1-1.6,4.2-2.1,6.5c-1.5,6.2-2.8,12.5-5,18.3c-0.9,2.2-1.7,4.4-2.7,6.5c-0.6,1.5-1.3,2.9-2,4.4 c-1.8,3.1-3.6,7-6.5,9.4c-1.6,1.3-3.6,2.8-5.5,3.7c-2.6,1.1-5.2,1.6-7.8,2.6c-1.1,0.4-2.2,0.7-3.3,1c-3.5,0.9-7,1.5-10.5,2.1 c-8.3,1.3-16.6,1.5-25,1.5l-0.3-0.1c1-2.4,1.8-5,3-7.6c1.9-4.5,4.3-9.1,7.8-12.8c0.9-0.9,3-2.4,3.1-3.5c0.5,0,1-0.1,1.6-0.1 l-0.1-0.6c0.9-1.1,1.1-4.1,0.6-5.4c-0.2-0.2-0.2-0.4-0.3-0.5c2.7,0,5.5,0.6,8.2,0.4c3.7-0.2,7.8-2.2,10.6-4.3 c3.9-2.6,6.7-6.7,9.3-10.6c1.3-1.7,2.4-3.7,3.5-5.6c0.7-1.2,1.7-2.3,2.3-3.6c1-3.6,4.1-6.4,6.6-9.1c1.7-1.8,3.1-3.9,4.5-5.9 c1.4-2.8,3.1-5.8,5-7.6c2.6-2.4,6.5-3.5,9.7-4.3c1.1-0.3,1.7-0.8,2.5-1.4c0.4-0.3,0.8-0.6,1.3-0.9c1.5-0.9,3.5,0,5.2,0.4 c2.4,0.4,4.5,2.3,5.6,4.4c1.2,0.1,2.3,0.4,3.1,1c0.6,0.4,1.2,2.1,1.2,3c1.5,1,3.2,3.2,1.3,4.7l-0.1,0.1 C268.5,58.4,268.9,58.7,269.3,58.9z M176,98.9h0.3c2,0.3,3.2,1.8,4.9,2.8c0.6,0.5,1.3,0.9,1.9,1.1h0.9v-0.5 c-1.5-1.1-2.2-3.5-2.6-5.2c-0.1-0.7-0.2-1.3-0.3-1.8l-0.5,0.1c-1.5-0.8-3.6-2.3-4.5-4c0.1-0.3,0.1-0.6-0.3-0.9 c-2.4-2.2-0.3-5.6-0.9-8.2c-0.3-1.3-0.9-2.5-1.4-3.7c0,0,0,0,0,0c1.4,2.6,4.4,4.5,7.4,6.1c0.2,0.1,0.3,0.1,0.5,0.1 c2.1,1,3.8,1.1,6.7,1.1c6.4,0,8.9-3,8.9-5.5c0-2.2-0.2-4.3-0.4-6.4c-0.1-0.9-0.5-2.2-0.1-3c0.4-0.9,1.8-0.9,2.3-1.7 c0.5-1.9-1.7-3-2.7-4.1c-1.2-1.1-2.1-2.6-2.4-4.1s-0.6-3-0.7-4.5c-0.1-1-0.2-2.1-0.2-3.1c-0.1-2.1-0.3-4.1-1.4-6 c-1-1.8-2.3-2.7-4-3.2c-0.1,0.2-0.1,0.4-0.2,0.6c-0.4-0.6-1.3-0.7-1.7,0c-2.1,3.5-1.4,7.5-0.8,11.3c-2.2,6.2-9.3,10.5-11.3,16.9 c0-1-0.1-2-0.1-2.9c0-1-1.4-1.4-1.9-0.5c-2.1,3.7-4.6,4.8-8.5,6c-1.2,0.3-2.1,1.1-2.3,2.2c-0.1,0.4,0,0.9,0.1,1.3 c0.7,4.4-1.9,6.9-5.4,8.8c-1.7,0.9-2.5,1.1-2.7,2.9c-2.6,6.9-6.4,13.5-7.3,20.9c-0.7,6.1-1.3,11.4,0.4,17.1 c1.7,5.7,4.1,10.7,7.8,15.2c0.1,0.1,0.1,0.2,0.2,0.3c1,0.3,1.9,0.2,3,0.4c1,0.2,1.3,0.2,2,0.9c0.4-0.8,1.3-1.4,1.5-2 c0.5-0.7,0.3-2,0.3-3c0-0.6-0.2-0.9-0.4-1.5c-1.3-7.3-0.2-15.3,1.3-22.7C162.8,109.3,167.6,98.5,176,98.9z" fill="#fff8ef"/></g><g id="change5_1"><path d="M227.7,31.3c0.7-3,2.5-5.9,5.7-6.4c2.6-0.4,4.6,2.1,5.4,4.2c1.1,2.9,1,6,0,8.9c-0.7,2-2.7,5-5.1,4.7c-0.6-0.1-1-0.7-0.5-1.2 c1.3-1.3,2.9-1.8,3.7-3.6c0.8-1.6,1.2-3.5,1-5.3c-0.2-1.8-0.7-3.9-2.1-5.2c-3.3-3-6.6,1.3-7.8,4.1C228,31.7,227.7,31.6,227.7,31.3z M183.5,344.8c8.7,15.1,19.6,29.1,30.4,42.6c4.8,6,10.6,10.9,16.8,15.4c3.1,2.2,6.3,4.2,9.5,6.1c3.3,2,6.7,4.3,10.3,5.6 c0.4,0.1,0.8-0.5,0.4-0.7c-2.5-2-5.5-3.4-8.2-5c-3.3-1.9-6.5-3.9-9.6-6c-6.5-4.3-12.5-9.4-17.7-15.4c-5.9-6.7-11.3-14-16.7-21.1 c-5.3-7-10.3-14.3-14.7-21.9C183.8,344.3,183.3,344.5,183.5,344.8z M150.3,361.7c0-0.5-0.7-0.5-0.7-0.1c-0.2,15.2,0.3,30.8,5,45.4 c2.2,6.9,5.6,13.1,10.4,18.6c6.6,7.5,13,15.2,18.5,23.6c0.7,1,2.4,0.1,1.7-1c-4.9-7.6-10.6-14.5-16.5-21.3 c-5.5-6.3-9.6-12.4-12.5-20.3C151.1,392.3,150.5,376.7,150.3,361.7z M194.9,76.7c0.2-0.1,0.2-0.4,0-0.5c-0.6-0.4-1.4-0.3-2.1-0.5 c-0.9-0.2-1.7-0.6-2.5-0.8c-0.3-0.1-0.5,0.4-0.2,0.5C191.2,76.2,193.6,77.5,194.9,76.7z M214.7,38.4c0.1-0.1,0.1-0.3,0.1-0.5 c-0.7-1.6-3.7-1.3-5.2-1.1c-1.8,0.2-3.1,1.5-4.6,2.4c-0.6,0.5-0.3,1.4,0.4,1.4c1.5,0,2.6-1.2,3.9-1.7 C211,38.3,213.3,39.6,214.7,38.4z M330.2,395.5c-2.1,1.8-5.4,1.5-7.4,3.4c-3,2.8-3.3,5.9-3.7,9.8c-0.8,7.4-10.7,9.8-11.8,17.1 c-1,6.7,6.2,15.4-0.1,20.8c-1.3,1.1-3.2,2-4,3.6c-1.1,2.2,0.2,4.2,1.7,5.7c1.9,1.8,3.7,3.6,4.1,6.3c0.5,3.6-1.1,6.4-3.3,9.1 c-2.1,2.7-4.1,5.6-6.9,7.5c-4.6,3.2-9.5,2.8-14.7,1.8c-4.1-0.7-8.2-1.6-12.4-1.6c-4.9-0.1-9.7,0.6-14.5,1.4c-4.9,0.8-9,2.1-13.3,4.9 c-3.2,2.1-5.5,4.6-8.2,7.2c-4.6,4.4-10.9,4.8-16.8,2.6c-1.2-0.4-2.1-1-2.8-1.7c-0.3,0.9-1,1.8-2.1,2.7c-4.1,3.2-10,3.6-15,3.6 c-5.2,0-10.2-0.8-15.4-1.6c-4.3-0.6-7.6,1.5-11.7,1.7c-1.6,0-3.1-0.1-4.6-0.3c-2.3-0.2-15.3-1.1-20-4.3c-4.8,4.7-14.2,5.3-20.2,5.1 c-8.5-0.3-16.9-1.8-24.7-5.2c-7.7-3.4-13.4-8.1-19.1-14.2c-2.7-2.9-5.7-6.2-9.6-7.5c-3.8-1.3-7.8-1.4-11.7-1 c-7.7,0.7-14.1,0.9-20.6-3.8c-3.4-2.4-6.3-6.5-11-5.5c-3,0.6-5.6,2.6-8.6,3.1c-6.6,1.1-12.3-4.4-15-9.9c-2.8-5.7-6-14.6-2.6-20.6 c0.3-0.6,0.7-1.2,1-1.8C5,434,4.8,433.7,5,433.5c0.5-0.8,1-1.6,1.6-2.3c0.7-2,0.8-3.9-0.8-6c-1.4-1.8-3.2-3.3-4.4-5.3 c-3.1-5.2-0.2-11.9,2.8-16.6c3-4.6,6.9-8.5,11.4-11.7c-0.5,0-1-0.5-0.8-1c3.1-8,6.4-15.7,8.3-24c1.8-7.7,3-15.5,4.8-23.2 s4-15.1,7.6-22.2c3.5-6.9,7.6-13.4,11-20.3c1.8-3.8,3.2-7.9,5-11.7c1.7-3.6,3.6-7.2,5.2-10.9c3.3-7.8,4.2-16,5.6-24.3 c1.4-8,1.6-16,2.7-24c0.9-6.9,3-13.3,6.1-19.5c4.3-8.5,9.9-16.3,14.3-24.8c4.5-8.8,8.3-18,11.2-27.5c2.9-9.3,5.3-18.8,7.4-28.3 c2-9.3,3.4-18.8,5.7-28c3.2-12.7,9.6-23.8,17.9-33.8c3.2-3.8,12-14.3,18.1-11.2c-0.6-3-0.3-5.9,0.1-7.4c0.8-2.9,2.6-6,4.8-8.2 c2.6-2.6,6.2-4.7,9.4-6.2c2.7-1.3,5.8-1.6,8.7-1.2c2.3,0.4,4.3,1.1,6.4,2.1c2.2,1,3.9,2.7,6.1,3.9c1.6,0.8,4.9,0.3,5.9,1.9 c0.2,0.2,0.4,0.5,0.5,0.8c0.1,0.5,0,1-0.1,1.5c4.8,2.1,5.4,7.1,6,12.2c0,0,0,0,0,0c0,0.1,0,0.2,0,0.3c0.1,1,0.2,2,0.4,3 c0.5,3,1.9,4.7,3.9,6.7c0.6,0.6,1.2,1.1,1.2,2c0,0.6-0.2,1.3-0.8,1.6c-2.3,1.3-1.4,3.9-1.2,6c0.6,5.4,0.2,9.4-6.1,10.3 c-3.7,0.6-9-0.4-11.3-1.3c-0.2,1-1.2,1.4-2.2,2.2c-1.8,1-1.5,2.6,0,3.7c-0.2,0.2-0.6,0.3-1,0.3c0.8,1.7,2.4,2.8,4,3.7 c0.2-1.7,2.1-0.6,3.2,0.4c0.9,0.9,2.5,0.1,3.6,0.3c1,0.2,1.6,0.9,2,1.7c3.9-0.2,7.6,0.9,11.6-0.6c3.7-1.4,7.4-3.8,10-6.7 c4.2-4.7,7.9-10.5,11-16.1c-1.7,0.4-5,0.5-6-0.5c-0.7-0.8-0.6-1.7-0.5-2.6c0,0,0,0,0-0.1c0-0.1,0-0.2,0-0.3c0-0.1,0-0.3,0.1-0.4 c0,0,0-0.1,0-0.1c0,0,0,0,0-0.1c0.1-0.4,0.1-0.9,0.1-1.3c-1-1-1.8-2.2-2.6-3.6c-0.4-0.4-0.7-0.8-0.9-1.3c-0.1-0.3-0.1-0.5-0.2-0.7 c-0.6-1.2-1.2-2.4-1.8-3.5c-1.2-2.1-1.8-3.6-4.2-4.7c-0.7-0.4-1.5-0.8-1.7-1.7c-0.3-0.8,0.1-1.7,0.4-2.5c1.2-2.7,1.7-4.8,0.3-7.5 c-1.6-2.9-4.3-5.4-5.4-8.6c-1-2.6-1-4.8-0.3-7.1c-0.2,0-0.3,0-0.4,0c0,0-0.1,0-0.1,0c-0.2,0-0.4-0.1-0.6-0.2c0,0,0,0,0,0 c-0.2-0.1-0.3-0.2-0.5-0.3c0,0,0,0,0,0c-0.1-0.1-0.2-0.2-0.3-0.3c0,0,0,0-0.1-0.1c-0.1-0.1-0.1-0.2-0.2-0.4c0,0,0-0.1-0.1-0.2 c0-0.1-0.1-0.2-0.1-0.3c-0.4-1.8,0.8-4.7,0.2-6.8c-0.1-0.4-0.2-0.8-0.3-1.1c0-0.1-0.1-0.2-0.1-0.3c-0.1-0.5,0-0.9,0.4-1.6 c0.6-1.1,1.7-0.9,3-1.3c0.5-0.2,0.8-0.5,1.1-0.9c0.1-0.1,0.2-0.2,0.2-0.3c0.2-0.4,0.3-0.7,0.4-1.1c0.1-0.4,0.2-0.8,0.2-1.2 c0.1-0.4,0.2-0.8,0.3-1.2c0.1-0.1,0.1-0.3,0.2-0.4c0.1-0.2,0.3-0.5,0.5-0.7c0.4-0.3,0.8-0.5,1.2-0.7c0.1,0,0.3-0.1,0.4-0.1 c0.6-0.1,1.2-0.2,1.9-0.2c0.2,0,0.3,0,0.5,0c0.6,0,1.3,0,1.9-0.1c0.1,0,0.3-0.1,0.4-0.1c0.3-0.1,0.6-0.2,0.8-0.3 c2.4-1.1,2.6-4.1,5.4-5c0.3-0.1,0.5-0.1,0.8-0.1c0.9,0,1.8,0.3,2.7,0.6c0.9,0.3,1.8,0.6,2.8,0.4c2.1-0.3,3.7-2.8,5.9-2.9 c0.3,0,0.7,0,1,0.1c0.3,0,0.5,0.2,0.7,0.3c0.2,0.1,0.4,0.3,0.6,0.5c0.3,0.3,0.5,0.7,0.8,1c0.1,0.1,0.2,0.2,0.3,0.3 c0.1,0.2,0.3,0.4,0.4,0.5c0.5,0.6,0.8,0.9,1.2,1.2c0.3,0.2,0.8,0.3,1.4,0.5c0.1,0,0.3,0.1,0.4,0.1c0.4,0.1,0.9,0.2,1.3,0.3 c0.3,0.1,0.6,0.1,0.9,0.2c0.4,0.1,0.8,0.2,1.2,0.4c0.1,0.1,0.3,0.1,0.4,0.2c0.8,0.4,1.4,1,1.9,2c0.1,0.3,0.2,0.7,0.3,1 c0.1,0.6,0.2,1.1,0.6,1.8c0.6,0.9,1.9,1.3,3,2.2c0.2,0.1,0.4,0.3,0.6,0.5c0.6,0.6,1.1,1.3,1.3,2.1c0.2,1.1-0.2,2.2,0,3.2 c0,0,0,0,0,0c0.2,0.7,1.1,1.8,1.5,2.8c0.3,0.7,0.3,1.3-0.2,1.7c0.6,2.5,0.7,5.1,0.1,7.9c-0.5,3-1.9,6.2-0.2,9 c0.9,1.6,1.9,3.3,3.3,4.6c0.7-0.4,1.4-0.8,2.1-1c1.4-0.5,3.3,0.4,4.6,0.7c2.6,0.6,4.5,2,5.5,4.4c0,0,0,0.1,0,0.1 c2.3,0.2,4.5,1,4.6,3.6c0,0.1,0,0.2-0.1,0.3c1.9,1.2,3.5,3.4,2,5.3c0,0,0,0,0.1,0c0,0,0,0,0,0c0.5,0,0.7,0.3,0.8,0.7 c2.8,1.2,5,3.4,7,5.6c2.3,2.5,4.8,5.1,6.6,8c4.5,7.6,5.7,16.4,7.6,24.9c2.2,9.9,3.9,19.7,4.6,29.8c0.7,9.8,2.3,19.7,2.5,29.5 c0.1,5.2-0.2,10.4,0.3,15.6c0.5,5.1,1.9,9.7,3.7,14.5c3.3,9.1,7.4,18,10.3,27.2c1.6,4.8,3.1,9.8,3.4,14.9c0.1,0.9,0.6,2.9-0.5,3.5 c-1.5,0.9-3.1,1.3-4.8,1.7c-4.2,0.9-5.8,3.3-8.7,6c-2,1.8-3.9,3-6.6,3.2c-0.1,0-0.3,0-0.4-0.1c0,0.3-0.1,0.7-0.5,0.8 c-0.3,0.1-0.6,0.1-0.9,0.2c0.1,0,0.2,0.1,0.2,0.2c0.2,2.9-3.8,14.4-8.1,16.6c1.1,3.4,1.3,8.6,1.2,9.9c-0.3,4.6-1.7,9.1-5.1,12.3 c-2.1,2-4.2,3-2.7,6c1,1.9,1.5,3.9,1.8,6c0.9,6.1-0.4,11.6-0.9,17.7c-0.2,2-0.4,4.1,0.2,6c0.4,1.4,1.2,2.6,1.6,3.9 c0.7,2.2,1.3,4.5,1,6.8c-0.8,6.7-3,13.2-3.5,20c-0.5,7.1-0.3,14.2,0.6,21.2c0,0.3-0.1,0.6-0.3,0.7c0.2,0.2,0.5,0.3,0.7,0.5 c6.5,3.9,13.9,7.7,21.5,8.9c8.7,1.4,19.4,0.2,27,5.5C331.9,388.5,333.4,392.8,330.2,395.5z M293.2,244.4c-0.2,0.1-0.4,0.1-0.6,0.2 l0.6,0C293.2,244.5,293.2,244.5,293.2,244.4C293.2,244.4,293.2,244.4,293.2,244.4z M256.1,60.8c-2,0.6-2.7,2.8-4.6,3.7 c-2.9,1.3-5.6,2.3-6.7,5.5c-1.9,5.7-3.1,11.3-4.5,17.1c-1.4,5.8-3.3,11.5-5.8,17c-0.2,0.4-0.4,0.9-0.6,1.3 c-0.3,6.2,2.4,12.3,3.4,18.4c0.7,3.8-0.5,7.6-0.2,11.4c0.4,4.5,3.4,5.7,6.4,8.2c0.1,0,0.2,0.1,0.2,0.1c0,0,0,0.1-0.1,0.1 c0.1,0.1,0.2,0.2,0.4,0.3c0.6,0.6,0,1.8-0.9,1.5c-1.1-0.4-2-0.7-3.1-0.8c0.1,0.7,0.3,1.4,0.5,2.1c1.1,0.5,2.1,1,3,1.6 c0.3,0.1,0.5,0.5,0.5,0.8c0,0.3,0,0.6,0,0.9c0,0.4-0.3,0.7-0.7,0.9c-2.1,0.9-3.3-0.6-4.1-2.5c-5-1.8-8.9,1.6-12.9,4.4 c-6.8,4.6-15.2,8.6-23.4,9.9c-3.6,0.6-9.7,0.9-9.2,5.9c0.3,3,1.4,5.8,2.4,8.6c0.6,1.6,1.2,3.2,1.9,4.9c0,0,0.1,0,0.1,0 c0.5,0.2,0.6,0.6,0.3,0.9c1.9,4.4,4.4,8.9,7.9,11.8c1.1,0.9,2.1,1.3,3.1,1.5c0.2-0.2,0.6-0.2,0.8,0.1c2.4,0,4.7-1.7,7.3-3.1 c3-1.7,5.7-4.1,8.9-5.3c0.7-0.2,1.3-0.5,2-0.7c0-0.2,0-0.3,0.1-0.5c1.3-1.2,3.2-1.4,5.3-1.1c1.8-0.5,3.5-1.1,5.3-1.8 c4.1-1.8,7.9-4.4,11.9-6.4c7.5-3.6,15.8-4.6,20.4-12.5c4.9-8.5,5.6-18.5,7.9-27.8c2.3-9.6,4.7-19.2,7.4-28.8 c0.1-0.4,0.8-0.2,0.7,0.2c-1.9,10.7-4.6,21-7.1,31.5c-2.1,8.8-2.8,18.7-8.1,26.4c-1.8,2.6-4.1,5-6.9,6.6c-3.2,1.9-6.5,2.7-9.8,4 c-4.7,1.8-8.8,4.5-13.2,6.8c-1.9,0.9-3.9,1.6-5.8,2.3c2,0.5,4,1.2,5.3,1.5c3.6,0.9,7.5,0.7,11.2,1.3c3,0.5,5.9,1.3,9,0.9 c0.9-0.1,1.1,1.3,0.4,1.7c-1.9,1.3-4.7,0.5-6.8,0c-3.6-0.8-7.2-1.1-10.8-1.5c-2.6-0.3-5-1-7.6-1.7c-1.3-0.3-3-0.9-4.6-1 c-0.4,0.1-0.7,0.2-1.1,0.3c-2.5,0.7-5,1.4-7.2,2.8c-1.7,1-3.2,2.3-4.9,3.2c-2.6,1.4-5.3,3.8-8.3,4.2c-0.2,0-0.5,0-0.7,0 c0.7,11.8-0.7,23.7-0.4,35.5c0.1,4.8-0.6,12.9,3.6,16.2c4.1,3.3,9.4,5.2,14.6,5.9c11.6,1.5,23.9-0.4,35.4-2.2c6.1-0.9,12.4-2,17.9-5 c3.9-2.1,8.4-5.5,13-5.7c0.1,0,0.2,0,0.2,0c0,0,0-0.1,0-0.1c-0.4-4-0.2-8.1-0.7-12.2c-0.6-4.7-1.5-9.4-2.4-14.1 c-1.7-8.9-3.4-17.9-5.7-26.7c-0.2-0.7,0.9-1,1.1-0.3c2.7,9.1,4.6,18.4,6.4,27.8c1.5,8.3,2.3,16.3,3,24.6c3.5-0.7,5.3-3.7,7.7-6 c2.2-2.1,4.3-2.6,7.2-3.5c3.6-1.1,2.4-4.8,1.8-7.7c-0.4-2.1-0.9-4.1-1.4-6.2c-1.1-4.3-2.4-8.5-3.9-12.7c-3-8.3-6.8-16.4-9.1-24.9 c-2.2-8.2-1.3-16.6-1.7-25c-0.4-9-1.7-18-2.3-27c-0.7-9.5-2.1-18.8-4.1-28.1c-1.8-8.1-2.7-17.1-6.5-24.5c-1.7-3.4-4.1-6.1-6.5-9 c-2.2-2.7-4.6-5.6-7.7-7.2c-0.1,0.1-0.3,0.2-0.5,0.2C265.1,59.9,260.2,59.6,256.1,60.8z M211.3,259.2c0.6,4.6,2.5,8.4,4.6,12.5 c2.2,4.2,4.5,8.4,7.1,12.3c1.9,2.9,4.2,5.7,6.2,8.6c0-2.7-0.1-5.4-0.4-8.1c-0.4-3.9-1.8-7-3.3-10.5c-2.4-5.4-2.7-11.5-2.3-17.5 c-4.1-1.2-9.1-3.1-12.1-6.4C211.1,253.2,210.9,256.2,211.3,259.2z M175,180.3c-2.8-0.8-6-1.1-8.9-2.1c-1.2,0.5-1,2.2,0.7,2.8 c0.4,0.2,0.9,0.4,1.4,0.5c1.3,0.4,2.7,0.4,4,0.7c3.4,0.6,6.8,0.9,10.3,0.9c1.9,0,3.9-0.1,5.7-0.8c1.2-0.5,2.6-1.1,3.9-1.3 c1.4-0.2,2.6,0,3.7,0.3c-1.3-2.8-2.4-5.6-3.3-8.4c-0.9-2.8-1.7-5.7-0.3-8.5c0.1-0.3,0.3-0.6,0.6-0.8c-0.8-0.8-1.7-1.5-2.5-2.3 c-0.8-0.9-1.4-2-2.3-2.8c-2.3-2-5-2.9-7.9-3.7c-1.2-0.3-2.4-0.8-3.7-1c-3.2,0.7-3.6,1.8-1.2,3.5c0.6,0.3,1.1,0.5,1.7,0.8 c1.4,0.7,2.2,1.7,2.9,3.1c0.1,0.1,0.1,0.1,0.1,0.2c0.1,0.2-0.1,0.4-0.3,0.3c-3.8,1.1-6.9,2-10.8,1.6c-1-0.2-1.9-0.1-2.8,0.3 c-0.5,1.9-0.1,2.9,1.3,3.1c0.7,0.1,1.4,0.3,2.1,0.4c1.8,0.3,3.6,0.3,5.3,0.6c0.3,0,0.2,0.4,0,0.5c-1.7,0.6-7.2,0.5-9.7-1.1 c-0.7,0.3-1.4,0.5-2.1,0.7c-1,2.1-0.6,3.2,1.1,3.5c0.2,0,0.5,0.1,0.7,0.2c0.5,0.1,1.1,0.3,1.6,0.4c2.5,0.6,5,0.5,7.4,1.2 c0.3,0.1,0.3,0.5,0,0.6c-2.1,0.6-4.7,0-6.8-0.5c-1.1-0.3-2.2-0.5-3.3-0.9c0,0.1-0.1,0.3-0.2,0.3c-0.3,0.1-2.9,0.7-2,1.6 c0.5,0.5,1.1,1,1.8,1.4c1.3,0.7,2.5,1.5,4,1.8c2.8,0.6,5.8,0.5,8.1,2.4C175.5,180,175.3,180.4,175,180.3z M207.3,143.8 c-0.5,0.7-1.1,1.4-1.7,2.1c0.1,2.7-0.2,5.5-0.3,8.2c-0.1,2,0.1,3.9,0,5.9c1-0.2,2.1-0.5,3.1-0.8c-0.1-0.2,0-0.4,0.2-0.6 c1.4-1.1,2.2-4.4,3-5.9c1.3-2.7,3-5.3,4.2-8.1c1.4-3.4,1.5-5.7,1.2-9.3c-0.1-1.3-0.2-2.4,0-3.7c0.6-3.4,1.7-6.7,2.7-10 c-2.8,1.3-5.7,2.3-8.9,3.3c-0.6,0.2-1.2,0.3-1.8,0.5C210,131.3,210.8,138.4,207.3,143.8z M236.1,123.9c-0.9-5.4-2.9-11-3.1-16.5 c-1.9,3.9-4.2,8.1-7.3,10.5c-1.3,1-2.7,1.9-4,2.7c-0.6,5.5-3.2,10.9-3.2,16.4c0.1,4.3-1.7,7.3-3.6,11c-0.5,0.9-2.8,8-4.7,10.6 c4.6-1.7,9.1-3.6,13.2-6.3c3.6-2.4,7.2-5.7,11.5-6.5c1.2-0.2,2.4-0.1,3.6,0.2c-0.2-0.8-0.3-1.6-0.4-2.2c-0.1-0.6,0.3-1.2,0.9-1.2 c0.3,0,0.5,0,0.7,0c-1.6-1.2-3.2-2.5-3.6-4.3C234.8,133.5,236.9,128.7,236.1,123.9z M223.6,52.3c0.4-0.8,2.7-7.8,1.7-8.3 c0.3,0.2,0.7,0.3,1,0.5c0.2,0.1,0.3,0.2,0.5,0.3c0.1,0.1,0.3,0.2,0.4,0.3c0.2,0.2,0.4,0.3,0.6,0.5c0.1,0.1,0.2,0.2,0.3,0.3 c0.2,0.2,0.4,0.4,0.6,0.6c0,0,0.1,0.1,0.1,0.2c0.7,0.8,1.3,1.6,1.8,2.6c0,0,0,0,0,0c0.2,0.3,0.3,0.6,0.4,0.8c0,0.1,0.1,0.2,0.1,0.3 c0.1,0.3,0.2,0.5,0.3,0.8c0,0.1,0.1,0.2,0.1,0.3c0.1,0.3,0.2,0.6,0.3,0.9c0,0.1,0,0.1,0.1,0.2c0.5,1.8,0.8,3.8,0.7,5.6 c0,0,0.1,0,0.1-0.1c1.4-3,3-6,5.6-8.2c2.7-2.2,6.1-2.9,9.3-3.9c0.7-0.2,1.2-0.5,1.8-0.8c-2.1-1.8-4.1-5.3-4.1-7.6 c-0.1-3,1.2-5.9,1.4-8.9c0.1-1.8,0.1-3.6-0.1-5.3c-0.2,0.1-0.5,0.1-0.9,0.2c-2.2,0.2-3.9-1.7-6.3-1.5c-1.7,0-3.2,1.7-5,1.5 c-1.7,0-2.8-1.5-4.5-1.3c-1.9,0.2-3.5,1.7-5,2.6s-3,2.2-4.5,3.5s-2.8,2.6-4.8,3.7c-2.4,1.3-2.2,0.6-3.2-1.5c-1.1-2-3.1-4.3-4.1-6.6 c-2.5,1-5.1,2.7-7.7,3.1c0,0,0,0,0,0c0,0,0,0,0,0c-0.3,0.1-0.7,0.1-1,0.1c-0.7,3.8,0.6,7.2,3,10.6c1.4,2,3.1,4,3.8,6.4 c0.6,2.4,0.3,3.9-0.7,6.1c-1.4,3.2,2.2,3.2,3.4,5.3c1.1,1.9,2.3,3.8,3.4,5.8c0.4-0.2,0.9-0.3,1.5-0.4c0.5-0.1,1-0.2,1.5-0.3 c0.2-0.1,0.4-0.1,0.6-0.2c0.2-0.1,0.3-0.1,0.5-0.2c0.3-0.1,0.6-0.2,0.8-0.4c0.1-0.1,0.3-0.2,0.4-0.3 C220.6,58.1,222.3,55.2,223.6,52.3z M188.9,103.4c5.8-0.9,11.8-2,17.6-2.2c1.5-2.4,3-4.7,4.6-7c2.9-4.1,5.7-8.2,8.3-12.5 c2.3-3.8,4.8-7.5,7.6-10.9c1.1-1.4,1.9-3,2.6-4.7c-0.1,0.1-0.2,0.3-0.3,0.4c-0.5,0.6-1.1,1.3-1.8,2c0,0,0,0-0.1,0.1 c-1.5,1.5-2.4,3.5-4.1,4.6c0,0,0,0,0,0c-0.6,2-2.1,3.7-3.1,5.5c-1.1,1.9-2.3,3.7-3.5,5.5c-2.1,3.1-4.3,6.4-7.3,8.7 c-2.8,2.2-6,4.2-9.5,5c-3.4,0.8-6.9,0.6-10.4,0C189.9,99.4,189.9,102.2,188.9,103.4z M187.4,104.3c0,0.2-0.1,0.4-0.2,0.7 c-1.2,2.2-3.3,3.8-4.7,5.9c-3.7,5.4-6.4,11.2-9.2,17.2c13.8-0.3,27.2-1.8,40.5-5.8c6.6-2,12-5.2,15.3-11.4c1.6-2.9,3-5.9,4.4-8.9 c0.1-0.5,0.3-1,0.4-1.6c0.1-0.2,0.2-0.3,0.4-0.3c0.9-2.1,1.7-4.3,2.3-6.5c2-6.4,3.1-13.1,5.5-19.3c1.4-3.7,1.8-7.6,5.8-9.5 c1.5-0.7,3-1.2,4.1-2.4c0.6-0.7,1.2-1.5,2-2.1c1-0.8,2.4-1,3.6-1.2c2.9-0.4,5.7-0.7,8.6-0.8c-0.9-0.4-1.8-0.8-2.9-1.1 c-2.1-0.6-4.2-0.3-6.3-0.7c-0.2-0.1-0.2-0.5,0-0.5c3.7-1,7.6-0.3,10.9,1.4c1.2-1.7-1.2-3.7-2.5-4c-1-0.2-2.1-0.1-3.1-0.3 c-1.4-0.2-3.2-1-4.6-0.5c-0.8,0.3-1.3,0.6-2.2,0.6c-0.3,0-0.4-0.3-0.1-0.5c1.5-0.8,3.1-1.5,4.8-1.1c1.5,0.4,3,0.3,4.6,0.5 c0.4,0,0.8,0,1.1,0.1c-0.5-2.3-4.4-2-6.2-2.3c-1.4-0.2-3.1-1.2-4.5-0.5c-0.8,0.3-1.2,0.6-2.1,0.5c-0.3,0-0.4-0.3-0.2-0.3 c2-0.4,2.8-1.6,4.9-1.2c1.3,0.2,2.5,0.3,3.8,0.4c-1.6-2-3.2-2.7-5.7-3.4c-1.8-0.5-3.1-0.2-4.4,0.5c0,0.2-0.2,0.4-0.5,0.3 c0,0,0,0-0.1,0c-0.5,0.3-1.1,0.6-1.6,0.9c-2.8,1.5-6.3,1.5-9.1,3.4c-3.4,2.3-5.2,6.1-6.9,9.7c-1.4,2.9-2.4,5.8-3.8,8.7 c-3.5,7.3-8.6,14.2-13.3,20.8c-2.3,3.3-5.1,6.5-7.2,9.9c-1.3,2.1-2.6,4.7-4.8,5.9c-0.2,0.1-0.5-0.1-0.4-0.3c0.7-1,1.4-2,2-3 C199.9,103.5,193.5,104,187.4,104.3z M181.5,95c0,0.4,0,0.9,0.1,1.3c0.4,2.1,0.8,4.4,2.4,5.9c0.6,0,1.5-0.1,2,0.2 c0.5,0.3,1,0.8,1.3,1.3c0.1,0,0.1,0,0.2,0c0-0.1-0.1-0.2-0.1-0.2c0-0.8,0.4-1.6,0.5-2.4c0.1-0.8,0.2-1.7,0-2.5c-0.5-2-2.7-1-4.2-1.4 c-0.6-0.1-0.9-0.7-1.3-1.1C182.3,95.8,181.5,95.3,181.5,95z M186.1,55.4c0.1,0.5,0.2,0.9,0.4,1.4c0.8-0.7,1.8-1.2,2.9-1.4 c0.9-0.1,2-0.3,2.9,0c-0.1-1-0.1-2.1-0.2-3.1c-0.2-4-1.8-6.4-4.8-7.8c-0.1,0.3-0.3,0.6-0.4,0.9c-0.5,1.1-0.6,2.1-0.6,3.1 C186.3,50.9,185.9,53.2,186.1,55.4z M176.6,79.7c1.1,1.4,2.6,1.7,3.4,3.6c0.8,0.4,8,2.7,10.8,1.8c6.5-2,5-8.6,4.9-13.6 c-0.1-0.8,0.3-1,0.7-1.5c0.2-0.2,0.4-0.3,0.7-0.4c1.2-1.9,0.9-3.2-0.7-4c-1.1-0.8-2.1-1.9-2.8-3.2c-0.2,0.2-0.5,0.4-0.8,0.5 c0,0.9,0,1.9-1,2.1c-0.9,0.2-1.7-0.7-2-1.6c-0.6,0-1.3,0-1.9-0.1c-0.3-0.1-0.3-0.6,0.1-0.6c1.4-0.2,2.8-0.2,4.1-0.6 c-0.2-0.3-0.3-0.5-0.5-0.8c-0.2-0.3-0.3-0.7-0.1-1c0-0.1,0.1-0.1,0.2-0.1c0.4,0.1,0.5,0.6,0.7,0.9c0.1,0.2,0.3,0.4,0.4,0.7 c0.2-0.1,0.3-0.2,0.5-0.3c-0.1-0.2-0.1-0.4-0.2-0.6c-0.3-1.4-0.5-2.7-0.7-4c-1,0-2-0.4-2.9-0.4c-1,0-2,0.4-2.9,0.9 c0.1,0.3,0.1,0.7,0.1,1c-0.1,1.5-0.9,2.4-1.8,3.6c-3.4,4.1-9,7.6-9.3,13.4C175.5,77,175.5,78.3,176.6,79.7z M166.9,76 c0.8,1,1.8,1.9,2.9,2.4c0.5,0.2,1.1,0.4,1.6,0.5c0-0.1-0.1-0.1-0.1-0.2c-0.3-0.9-0.4-1.6-0.4-2.6c0-1.3,0.5-2.6,0.8-3.9 c-0.3,0.4-0.7,0.8-1,1.1c-1,1-1.7,1.9-2.9,2.6C167.4,75.9,167.1,75.9,166.9,76z M152.8,89.9c-2.8,7.9-6.8,15.2-7.6,23.8 c-0.9,9.7,0.9,18.8,6.6,27c0.8,1.1,1.5,2.2,2.3,3.2c1.2,0.2,3,0.4,4.4,1c0.2-0.3,0.4-0.6,0.7-0.9c1.4-1.7,0.3-3-0.1-4.6 c-1.5-6.5-0.8-13.2,0.4-19.7c1.3-7.3,5.3-19.6,14-21c0.3-0.1,0.7-0.1,1-0.1c-1.1-0.9-2.2-1.6-3.9-2c-3-0.7-5.6,0.1-8.5,0.7 c-0.3,0.1-0.4-0.4,0-0.6c3.1-0.7,5.6-1.5,8.8-1c2.4,0.4,4,1.4,5.6,2.9c0.8,0.1,1.5,0.4,2.2,0.8c1.2,0.8,2.9,2.3,4.4,2.7 c-1.6-1.5-2.3-3.9-2.7-6.1c-0.1,0-0.2,0-0.3-0.1c-2.2-1-4.3-2.8-5.1-5.1c-0.2-0.1-0.4-0.1-0.5-0.2c-0.3-0.1-0.5-0.3-0.7-0.5 c-0.8-0.5-1.2-1.4-1.1-2.4c0.1-1,1-1.9,1.2-3.1c0.2-0.9-0.2-2.3-0.8-3.2c-0.3-0.4-0.6-0.8-0.9-1.1c-1.1-0.1-2.2-0.6-3-1.1 c-1.4-0.8-2.3-1.9-3-3.1c-1.5,0.4-3,0.5-4.6,0.5c0,0,0,0.1,0.1,0.1c1.1,0.7,0,6.8-0.3,7.6c-1.4,3.2-5.2,4.2-8.1,5.3 C153.1,89.8,153,89.8,152.8,89.9z M16.3,391.1c1.3-0.9,2.6-1.7,4-2.5c8.1-4.7,16.4-8.6,24.4-13.4c5.4-3.3,10.8-6.7,16.1-10.2 c0.2-1.1,0.3-2.3,0.6-3.3c0.7-2.9,1.4-5.8,2.2-8.7c1.6-5.9,3.4-11.8,5.2-17.6c3.7-12,7.3-24.2,8.5-36.7c1.2-12.4-1.2-25.1,0.8-37.4 c0.7-4.4,2-8.7,2.7-13.1c0.5-3.3,1.3-7.3,0.3-10.8c-0.9,0.8-1.9,1.5-3,2.2c-0.4,0.2-1.1-0.1-1.1-0.7c0.1-2.3,1.1-3.7,3-5.1 c0.3-0.3,0.7-0.1,0.9,0.2c0.2,0.3,0.4,0.6,0.5,0.9c6-6.1,8.6-15.9,10.4-23.9c1.2-5.2,1.9-10.3,4-15.3c2.2-5.4,5-10.4,7.5-15.6 c6.2-12.8,9.2-27.3,12.5-41c3.6-14.6,6.7-29.3,8-44.4c0-0.2,0.4-0.2,0.1,0.1c-1.2,15.5-3.9,30.9-7.5,46 c-3.3,13.9-6.2,28.3-12.5,41.2c-3,6.2-6.6,12.4-8.5,19.1c-1.3,4.8-1.9,9.8-3.2,14.6c-1.9,7.2-4.6,15.4-10,20.8 c2.6,6.9-1.1,16.3-1.9,22.9c-1.5,13.1,1.3,26.2-0.1,39.3c-1.4,12.8-4.8,25.2-8.6,37.5c-1.9,6.2-3.9,12.4-5.7,18.6 c-0.8,2.8-1.5,5.6-2.2,8.3c1.9-1.3,3.9-2.6,5.8-3.9c8.1-5.6,16.1-11.4,23.9-17.4c7.6-5.8,14.9-11.6,21.2-18.8 c4.1-4.6,7.8-9.3,11.5-14.1c-3.5-3.7-4.6-12.4-8.7-15.1c-1.7,0.3-3.5,0.3-5.1,0.2c-0.6-0.1-1.2-0.5-1.1-1.1c0-0.2,0-0.4,0-0.6 c0-0.5,0.4-0.9,0.8-1c1.9-0.5,3.5-0.4,4.9,0.2c1.9-0.3,3.6-1.1,4.2-3c0.6-2.1,0.4-4.2,0.3-6.3c-0.3-4.1,0-8,2.3-11.5 c2.6-3.9,7.5-8,6-13.2c-1.4-4.8-5.1-7.9-7.7-11.9c-5.9-9.1-5.6-20.7-5.9-31.1c-0.2-5.3,0.4-10.1,1.4-15.3c1.2-5.6,2.4-11.7,0.3-17.3 c-0.1-0.4,0.5-0.6,0.6-0.3c2.4,5.2,2,10.6,1,16c-0.6,3.3-1.3,6.6-1.6,9.9c-0.2,3,0.1,6.1,0.2,9.1c0.3,6.6,0.4,13.4,2.3,19.7 c1.7,5.8,5,9.5,8.4,14.3c2.6,3.7,4.7,8.3,2.8,12.7c-2,4.7-6.8,8-7.7,13.1c-0.8,4.4,1.1,9.1-0.7,13.4c-0.7,1.8-2,2.8-3.6,3.5 c0.8,0.8,1.6,1.8,2.2,2.9c1.7,3,2.8,8.6,5.6,11.2c1.5-1.9,3-3.8,4.5-5.7c2.6-3.3,5.1-6.5,8.2-9.4c2.8-2.7,5.8-5.2,6.6-9.2 c0.1-0.7,0.9-0.8,1.3-0.5c1-10.6,2.6-21.4-0.7-31.8c-2.8-8.7-7.2-16.7-8.9-25.7c-1.4-7.8-1.8-16.2,0.1-24 c1.9-7.9,5.4-14.4,10.8-20.5c2.8-3.2,5.8-6.3,8.6-9.6c3.1-3.6,3.7-7.7,2.5-12.3c-1.1-4.6-3.2-9.1-6-12.9c-0.4-0.5-0.8-1.1-1.2-1.6 c-0.1,0-0.2-0.1-0.2-0.1c-0.1-0.1-0.1-0.2,0-0.3c-2-2.8-4-5.6-5.4-8.8c-3.3-7.8-3.8-15.1-2.6-23.5c1-7.6,4.9-14.3,7.6-21.4 c-6.4,2-11.5-0.8-14.8-5.6c-2.5-3.6-3.9-8.2-3.9-12.6c0-3.3,1.3-5.7,3.5-8.3c2-2.5,5.7-4.2,8.9-4.7c0-0.1-0.1-0.2-0.1-0.3 c-5.4-4.1-14,6.4-16.9,10c-5.8,7-11.4,14.8-14.6,23.3c-5,13.1-5.9,27.3-8.6,40.9c-2.8,14.1-6.5,28.1-12,41.4 c-3.6,8.7-8.1,16.6-13,24.6c-4.9,8.1-10.2,16.7-12.6,25.9c-2.4,9.3-2.5,19.1-4.1,28.6c-1.6,9.7-2.6,19.2-6.8,28.2 c-4.2,8.9-7.6,18.1-12.1,26.8c-4.5,8.8-9.6,17.3-12.4,26.9c-2.8,9.4-4.3,19.2-6.6,28.7C24.1,373.3,20.3,382.2,16.3,391.1z M80.2,235.2c-0.6,0.6-1.1,1.2-1.4,1.9c0.6-0.4,1.1-0.9,1.7-1.3C80.4,235.6,80.3,235.4,80.2,235.2z M329.1,390.3 c-0.4-0.9-1.2-1.7-2.1-2.3c-2.1-1.4-4.6-2.1-7-2.6c-5.4-1.2-11-1.4-16.5-2c-15.6-1.7-30-12.3-41.5-22.3 c-7.5-6.5-14.8-13.5-21.8-20.6c-0.6-0.6-1.2-1.2-1.7-1.9c-0.1,0.6-1.1,0.6-1.3,0c-0.2-0.8-0.5-1.5-0.7-2.3 c-4.3-5.3-8.1-11.1-13.3-15.5c-0.2-0.1,0.1-0.5,0.6,0c4.7,3.6,8.1,8.3,11.9,12.8c-0.6-2.2-1.2-4.5-1.6-6.8c-0.6-3.2-0.6-6.5-0.9-9.8 c-0.4-4.2-2.4-7.5-3.2-11.5c-0.6-3.1-0.8-6.2-0.8-9.3c0-0.4,0-0.8,0-1.2c-6.9-7-10.9-16.2-15.6-24.6c-3.7-6.8-4.4-14.5-3.8-22 c-1.7-3.2-1.7-7.8-1.8-11.2c-0.5-13,0.1-26.4,1.1-39.4c-4-0.7-7.3-5.4-9.2-8.7c-1.2-2-2.2-4-3.2-6.1c-1.7-0.6-3.4-1-5.2-0.4 c-2.3,0.8-4.4,1.7-6.9,1.8c-5.2,0.1-9.9-0.7-15-1.5c-2.2-0.4-5.6-1.3-6.3-3.7c-0.3-1,0.3-1.4,1.1-1.6c-1.2-0.5-2.4-1.2-3.4-2.2 c-2-2-0.5-3.9,1.8-3.5c-0.6-0.3-1.1-0.6-1.6-1.1c-2.3-2.3,1.2-3.8,3.2-4.2c-0.7-0.7-0.9-1.6-0.4-2.7c0.8-2,3.2-2,5-1.8 c2.3,0.3,4.6,0.5,6.8-0.2c1.1-0.3,2.1-0.6,3.2-0.8c-1.2-1.3-2.4-2.1-4.2-2.8c-0.4-0.2-0.8-0.4-1.1-0.7c-0.7-0.7-1.2-1.5-1.4-2.5 c-0.4-2,1.9-2.7,3.4-2.7c1.9,0,4.1,0.9,5.9,1.4c1.7,0.4,3.6,0.9,5.1,1.9c2.7,1.8,5.1,4.5,7.3,7c1.5-0.9,3.4-1.2,4.8-1.5 c1.8-0.3,3.6-0.6,5.4-1c-0.5-2-0.1-4.3,0-6.2c0.2-2.4,0.3-4.9,0.5-7.3c-3.4,2.9-8.2,4.5-12.4,3.4c-0.6-0.2-0.6-1,0-1.2 c5.2-1.5,11.1-1.2,14.4-6.5c3.2-4.9,2.4-11.3,1.6-16.9c-11.5,3-23.4,3.2-35.1,2.9c-2.7,5.9-7.1,10.7-9.9,16.5 c-0.4,0.7-1.4,0.1-1.1-0.6c2.1-4.9,5.9-8.8,8.5-13.4c2.8-4.9,3.5-10.8,6.2-15.8c1.2-2.3,2.6-4.7,4.4-6.5c0.9-0.9,1.8-1.6,2.7-2.4 c0.3-0.3,1.5-1.1,1.5-1.7c-2.4,0.9-5.3,0.2-7.7,1.1c-3,1.1-5,3.5-6,6.5c0,0.2-0.4,0.2-0.5,0c-0.8-2.8,2.7-5.9,4.9-7.2 c1.7-0.9,3.6-1,5.5-1.4c0.2,0,0.3-0.1,0.5-0.1c-1.6-0.6-3-1.9-4.4-2.8c-0.1,0.1-0.3,0.2-0.6,0.1c-0.4-0.3-0.7-0.5-1-0.8 c-1.1-0.3-2.3-0.4-3.8,0.3c-9.1,3.7-10.9,17.2-11.7,25.7c-0.3,3.3-0.4,6.5-0.2,9.7c0.2,2.1,0.7,4.4,0.5,6.5 c-0.2,1.7-1.2,2.5-2.5,2.8c1.4,0.6,2.3,1.4,1.2,2.8c-0.1,0.1-0.4,0.2-0.5,0.1c-0.7-0.3-1.4-1.2-1.1-2.1c0.1-0.3,0.3-0.6,0.4-0.8 c-1.2,0.2-2.6,0-4-0.3c3.8,5.4,7.3,11.1,7.3,17.8c0.1,6.7-4.9,10.4-8.9,15.1c-3.1,3.6-6.6,7-8.9,11.2c-2.2,3.9-3.8,8.2-4.7,12.5 c-2,9-1.4,18.7,1,27.6s7.5,17,9.1,26.1c1.7,9.3,1.1,18.9-1,28c0,0.1-0.1,0.2-0.2,0.2c0,0,0,0.1,0,0.1c-0.2,2.2-0.8,4.2-2.1,6 c-2.1,3-5,5.1-7.3,7.9c-2.8,3.4-5.4,6.9-8.1,10.4c-5.4,7.1-10.9,14.2-17,20.7c-6.3,6.6-13.5,12-20.7,17.5 c-7.9,5.9-15.8,11.8-24,17.3c-2.2,1.5-4.4,2.9-6.5,4.4c0,0,0,0.1-0.1,0.1c-0.2,0.5-0.6,0.6-1,0.5c-5.7,3.7-11.5,7.3-17.4,10.6 c-8,4.4-16.5,8-24.2,12.7c-7.1,4.4-13.9,10.4-16.7,18.5c-1.3,3.7-1.9,7,0.7,10.2c1.3,1.6,3,3.1,4,5c0.6,1.1,1,2.5,1.1,3.8 c3.7-3.3,8.6-5.3,13-7.7c3.5-1.8,7.9-3.5,10.5-6.5c1-1.2,2.2-3,2.3-4.4c-1,0-2.1-0.2-3.2-0.6c-0.3-0.1-0.5-0.3-0.5-0.6 c0-0.4,0-0.9,0-1.3s0.3-0.7,0.7-0.7c2.5-0.1,3.7,0.6,4.1,1.8c5.7-0.7,10-7,13.2-11.3c1.6-2.1,3.1-4.5,5.1-6.3 c2.9-2.7,6.3-4.8,9.2-7.6c3.7-3.6,5.7-8.1,8.1-12.6c1.7-3.3,4-6.3,6.6-9c5.8-5.9,12.8-10.3,19.1-15.5c3.1-2.6,5.8-6.1,8.6-9.1 c4.1-4.5,8.3-9.1,12.4-13.7c5.7-6.4,11.3-13,17.4-19c5-6.1,10-12.1,14.8-18c1.1-1.2,2.8,0.6,1.8,1.8c0.1-0.1,0.3-0.4-0.1,0.2 c-0.3,0.4-0.5,0.8-0.8,1.2c-0.1,0.1-0.2,0.3-0.3,0.4c-3,10.1-8.7,20-14.2,28.7c-4.3,6.8-7.2,14-10.7,21.2 c-3.3,6.9-7.3,13.3-10.1,20.4c-5.4,13.6-8.3,28.8-5.2,43.3c1.6,7.5,5,14.3,7.5,21.5c2.5,6.9,4.5,13.9,5.8,21.1 c0.2,0.9-1.2,1.3-1.4,0.4c-1.9-7.4-4-14.8-6.8-22c-2.8-7.1-6.3-13.8-7.7-21.4c-2.7-13.9-0.9-28.3,4.3-41.5 c2.7-6.9,6.3-13.1,9.8-19.6c3.8-7,6.8-14.7,11.3-21.3c6-8.9,11.4-18.3,15.4-28.2c-0.3,0.4-0.6,0.8-1,1.1c-3.7,4.6-7.5,9.1-11.2,13.7 c-8.7,10.6-17.3,21.3-26,32c-4.1,5.1-8.2,10.3-12.4,15.3c-5.1,6.2-10.5,12.3-14,19.6c-4.1,8.5-4.5,17.1-4.5,26.3 c0,8.4-0.8,16-5.6,23.1c-9,13.4-23.1,21.5-37.9,26.8c-0.3,0.1-0.5-0.3-0.2-0.7c7.7-3.3,15.5-7.6,22.2-12.7 c7.1-5.3,15-12.9,17.2-21.8c2.2-9,0.5-18,1.6-27.1c0.9-7.6,3.5-14.7,7.7-21.1c4.3-6.6,9.6-12.5,14.6-18.6c3.8-4.6,7.5-9.3,11.3-13.9 c-2.5,2.7-5,5.5-7.5,8.2c-3.5,3.9-7.4,7-11.6,10.1c-7,5.2-14.3,10.8-18.5,18.7c-2.1,4-4,8.1-7.1,11.4c-2.9,3-6.6,5-9.6,7.9 c-5.7,5.4-11.6,18.1-20.4,18.9c-0.2,2.1-2.1,4.9-3.9,6.5c-3.8,3.4-9.6,5.3-14.2,7.5c-3.2,1.6-6.4,3.2-9.1,5.6 c-0.1,0.5-0.2,0.9-0.3,1.3c-0.8,1.9-2,3.6-2.9,5.4c-1.3,2.7-1.3,5.4-0.7,8.2c0.9,4.2,2,8.5,4.4,12.2c2.2,3.3,6.4,8.2,11,7 c3.3-0.8,5.9-3.2,9.2-3.9c3.2-0.6,6.1-0.2,8.7,1.8c3.4,2.6,6.4,5.9,10.7,7.1c3.5,1,6.9,0.8,10.4,0.4c7.4-0.8,14.5-0.7,20.7,4.1 c6.2,4.8,10.4,11.5,17.3,15.5c7.9,4.7,16.9,7.3,26.1,7.9c4.5,0.3,9,0.2,13.4-0.7c3.2-0.7,7.2-1.5,9-4.6c0,0,0-0.1,0.1-0.1 c-4.1-6.6-3.6-14.8-4.1-22.3c-0.7-9.7-0.7-19.9-4.2-29.1c-3.3-8.4-6.7-16.8-9.9-25.3c-1.5-4-3-8-3.3-12.3c-0.4-4.5-0.3-9.1-0.1-13.6 c0.5-8.8,1.2-17.8,2.6-26.5c1.3-7.8,3.7-15.4,6.3-22.8c5.6-15.5,12.7-30.4,17.7-46.1c0.1-0.3,0.7-0.2,0.3,0.2 c-4.8,15.3-11.3,30-16.3,45.3c-2.5,7.5-4.7,15.1-5.9,23c-1.3,8.8-2,17.9-2.4,26.8c-0.2,4.5-0.3,9.1,0,13.6c0.4,4.8,2.1,9.4,3.8,13.9 c3.2,8,6.3,16.1,9.1,24.3c2.9,8.5,3,17.5,3.9,26.3c0.9,8.3,0.4,16.4,4,23.9c0.8,0.1,1.6,0.7,1.6,1.5c0.1,0.1,0.2,0.1,0.4,0.2 c0.6,0.3,1.3,0.6,2,0.8c1.6,0.5,3.3,0.9,5,1.3c3.9,0.9,7.8,1.6,11.7,2c3.9,0.4,6.7-1,10.7-1.4c4-0.5,7.9,1,11.9,1.6 c4.5,0.7,9.2,1.1,13.8,0.6c2.1-0.2,4.5-0.6,6.4-1.6c1.1-0.5,4.1-2.2,3.7-3.7c-0.7-3.1-7.5-12.1-3.5-14.7c1.1-0.8,3.1-0.1,4,0.8 c1.2,1.4,1,4.1,1,5.8c0,2.8-1,6.9,2.1,8.4c3.1,1.5,7.2,1.8,10.5,1c4.1-0.9,5.9-5,8.9-7.4c2.7-2.3,6.1-3.9,9.3-5.3 c4-1.8,8.6-2.1,12.9-2.7c4.2-0.6,8.5-1.1,12.7-1c-7.3-3.2-14.3-7.6-21-11.9c-7.5-4.8-15.2-9.3-22.7-14.2 c-14-9.2-25.2-21.4-34.1-35.5c-9.8-15.4-16.6-31.7-21.7-49.3c-2.5-8.6-5.2-17.1-7.9-25.7c-2.5-8.1-4.8-16.3-5.7-24.8 c0-0.3,0.4-0.2,0.2-0.1c1.1,9.2,4,18,7,26.8c2.8,8.2,5.2,16.4,7.7,24.6c5.2,17,11.9,32.9,21.5,47.8c4.7,7.2,9.8,14.2,15.8,20.3 c6,6.1,12.7,11,20,15.5c7.4,4.5,14.6,9,21.9,13.6c7.6,4.8,15.4,8.9,23.3,13c0.1,0.1,0.2,0.2,0.3,0.3c2.2,0.3,4.3,0.6,6.5,0.9 c2.8,0.4,5.9,1.1,8.7,0.5c3.4-0.7,6.1-2.8,8.3-5.5c2.5-3.1,7-7.6,5.3-11.9c-0.6-1.6-2-2.8-3.2-4c-7.1-0.8-13.9-3.5-20.3-6.6 c-7.3-3.4-14.4-7.5-21.4-11.5c-14.4-8.2-28.6-17.1-40.9-28.2c-6-5.5-11.8-11.4-16.7-18c-5.1-6.9-9.1-14.4-12.7-22.1 c-7.8-16.8-16.8-33-24.2-50.1c-0.1-0.3,0.3-0.5,0.5-0.2c7.3,16.7,16.2,32.5,24.3,48.8c3.7,7.2,7.5,14.5,12.4,21 c5,6.7,11,12.8,17.3,18.3c12.4,10.7,26.3,19.5,40.5,27.6c12.5,7.2,25.2,14.8,39.2,18.4c-0.1-0.2-0.2-0.5-0.3-0.7 c-0.8-2.4-0.6-5,1.3-6.8c1.2-1.2,2.7-2,3.9-3.2c2-2,1.3-4.8,0.7-7.2c-0.8-3.4-2.1-6.8-1.6-10.3c0.5-3.4,2.5-6.3,5-8.7 c2.6-2.6,6.4-4.9,7.4-8.7c0.9-3.1,0.6-6.8,2.5-9.6c0.1-0.1,0.2-0.2,0.2-0.3c-5.1,0.4-10.7-1.2-15.4-2.2c-6.8-1.3-13.8-1.8-20.6-3.1 c-14.1-2.6-27.2-7.6-39.2-15.5c-21.8-14.5-38.5-34.4-51.5-56.9c-0.2-0.4,0.3-0.7,0.6-0.4c13.7,21.4,30.6,41.5,52.2,55.2 c11.9,7.6,24.8,12.4,38.7,15c6.4,1.2,13,1.9,19.4,3.2c3.2,0.6,6.5,1.3,9.7,1.8c2.7,0.4,5.4,0.4,8.1,0.8c1.1-0.9,2.4-1.5,3.9-2.2 C327.8,394.1,330.1,392.9,329.1,390.3z M213,479c-1.4-0.2-1,1.2-0.7,2.1c0.6,1.8,1.3,3.6,2.1,5.3c0-1,0.1-2,0.1-3.1 C214.5,482,214.8,479.2,213,479z M32.5,408.3c0,0.3,0.2,0.3,0.9,0.4c0.3,0.1,0.6,0.1,0.9,0.1C33.9,408.5,33.3,408.3,32.5,408.3z M216,54.3c-0.2,0.1-0.4,0.5-0.6,0.7c-0.3,0.5-0.5,0.9-0.8,1.3c-0.5,0.7-1.5,1.7-2.4,1.8c-0.2,0-0.3,0.4,0,0.5 c1.3,0.3,2.3-0.4,3.1-1.3c0.6-0.6,1.7-2.2,1-3C216.2,54.2,216.1,54.2,216,54.3z M214.4,42.2c0.1-0.6-0.5-1-1-0.6 c-1.3,1.1-3.8,3.1-5.5,2.2c-0.2,0-0.3,0.1-0.3,0.3c0.3,1.8,2.5,1,4.3,0c-0.1,0.1-0.2,0.2-0.3,0.3c-0.3,0.4-0.7,0.7-1.2,0.9 c-0.4,0.1-0.8-0.1-1.2-0.1c-0.1,0-0.3,0.1-0.3,0.2c-0.3,1.7,2,1.3,2.8,0.8C212.9,45.4,214.1,43.7,214.4,42.2z" fill="inherit"/></g></svg>